<?xml version="1.0" encoding="UTF-8"?>
<svg xmlns="http://www.w3.org/2000/svg" viewBox="0 0 140 240">
  <defs>
    <style>
      .uuid-d488453b-b2ca-4007-9398-ca5b642542d0 {
        fill: #fff;
      }

      .uuid-70abb949-0a82-49f6-a97c-88d1fb9187fa {
        fill: #0c0c0c;
      }

      .uuid-743f287d-a35c-4611-98b4-c72d85b68c1d, .uuid-6eee02be-7639-49f7-8633-85ed55351fbf, .uuid-e31c4e57-48b0-478a-b851-2edbd63972f6, .uuid-09ada242-3280-4a0c-8bfa-9258d123641f {
        fill: none;
        stroke-miterlimit: 10;
      }

      .uuid-743f287d-a35c-4611-98b4-c72d85b68c1d, .uuid-09ada242-3280-4a0c-8bfa-9258d123641f {
        stroke: #fff;
      }

      .uuid-6eee02be-7639-49f7-8633-85ed55351fbf, .uuid-e31c4e57-48b0-478a-b851-2edbd63972f6 {
        stroke: red;
      }

      .uuid-6eee02be-7639-49f7-8633-85ed55351fbf, .uuid-09ada242-3280-4a0c-8bfa-9258d123641f {
        stroke-width: 2px;
      }

      .uuid-6deb5ce5-ad35-4926-ae27-3dc57864798a {
        fill: #282828;
      }

      .uuid-7adc473d-5b66-4271-aa48-7256cafe409d {
        fill: #ccc;
      }

      .uuid-13cedb96-c3b6-40d2-9e8d-499dbe5a93ed {
        fill: red;
      }
    </style>
  </defs>
  <g id="uuid-af746194-b503-4c00-ba28-a614b2f3e8fa" data-name="图层 4">
    <rect class="uuid-6deb5ce5-ad35-4926-ae27-3dc57864798a" width="140" height="240"/>
  </g>
  <g id="uuid-4d68eaf4-15e7-41f9-add0-1ce89eba007b" data-name="图层 3">
    <rect class="uuid-70abb949-0a82-49f6-a97c-88d1fb9187fa" x="27.45" y="12" width="99" height="216"/>
  </g>
  <g id="uuid-abb1d6b8-3b30-4ab0-8e7a-89c8ac8f70f6" data-name="图层 2">
    <g>
      <line class="uuid-6eee02be-7639-49f7-8633-85ed55351fbf" x1="37.95" y1="219.86" x2="37.95" y2="119.36"/>
      <line class="uuid-6eee02be-7639-49f7-8633-85ed55351fbf" x1="37.45" y1="119.36" x2="47.45" y2="119.36"/>
      <line class="uuid-e31c4e57-48b0-478a-b851-2edbd63972f6" x1="37.45" y1="129.36" x2="43.45" y2="129.36"/>
      <line class="uuid-6eee02be-7639-49f7-8633-85ed55351fbf" x1="37.45" y1="139.36" x2="47.45" y2="139.36"/>
      <line class="uuid-e31c4e57-48b0-478a-b851-2edbd63972f6" x1="37.45" y1="149.36" x2="43.45" y2="149.36"/>
      <line class="uuid-6eee02be-7639-49f7-8633-85ed55351fbf" x1="37.45" y1="159.36" x2="47.45" y2="159.36"/>
      <line class="uuid-e31c4e57-48b0-478a-b851-2edbd63972f6" x1="37.45" y1="169.36" x2="43.45" y2="169.36"/>
      <line class="uuid-6eee02be-7639-49f7-8633-85ed55351fbf" x1="37.45" y1="179.36" x2="47.45" y2="179.36"/>
      <line class="uuid-e31c4e57-48b0-478a-b851-2edbd63972f6" x1="37.45" y1="189.36" x2="43.45" y2="189.36"/>
      <line class="uuid-6eee02be-7639-49f7-8633-85ed55351fbf" x1="37.45" y1="199.36" x2="47.45" y2="199.36"/>
      <line class="uuid-e31c4e57-48b0-478a-b851-2edbd63972f6" x1="37.45" y1="209.36" x2="43.45" y2="209.36"/>
      <line class="uuid-6eee02be-7639-49f7-8633-85ed55351fbf" x1="37.45" y1="218.86" x2="47.45" y2="218.86"/>
    </g>
    <g>
      <line class="uuid-6eee02be-7639-49f7-8633-85ed55351fbf" x1="116.95" y1="219.86" x2="116.95" y2="119.36"/>
      <line class="uuid-6eee02be-7639-49f7-8633-85ed55351fbf" x1="117.45" y1="119.36" x2="107.45" y2="119.36"/>
      <line class="uuid-e31c4e57-48b0-478a-b851-2edbd63972f6" x1="117.45" y1="129.36" x2="111.45" y2="129.36"/>
      <line class="uuid-6eee02be-7639-49f7-8633-85ed55351fbf" x1="117.45" y1="139.36" x2="107.45" y2="139.36"/>
      <line class="uuid-e31c4e57-48b0-478a-b851-2edbd63972f6" x1="117.45" y1="149.36" x2="111.45" y2="149.36"/>
      <line class="uuid-6eee02be-7639-49f7-8633-85ed55351fbf" x1="117.45" y1="159.36" x2="107.45" y2="159.36"/>
      <line class="uuid-e31c4e57-48b0-478a-b851-2edbd63972f6" x1="117.45" y1="169.36" x2="111.45" y2="169.36"/>
      <line class="uuid-6eee02be-7639-49f7-8633-85ed55351fbf" x1="117.45" y1="179.36" x2="107.45" y2="179.36"/>
      <line class="uuid-e31c4e57-48b0-478a-b851-2edbd63972f6" x1="117.45" y1="189.36" x2="111.45" y2="189.36"/>
      <line class="uuid-6eee02be-7639-49f7-8633-85ed55351fbf" x1="117.45" y1="199.36" x2="107.45" y2="199.36"/>
      <line class="uuid-e31c4e57-48b0-478a-b851-2edbd63972f6" x1="117.45" y1="209.36" x2="111.45" y2="209.36"/>
      <line class="uuid-6eee02be-7639-49f7-8633-85ed55351fbf" x1="117.45" y1="218.86" x2="107.45" y2="218.86"/>
    </g>
  </g>
  <g id="uuid-fe9a378c-2c44-41da-83a4-4f41ecd2cadb" data-name="图层 1">
    <g>
      <line class="uuid-09ada242-3280-4a0c-8bfa-9258d123641f" x1="37.95" y1="19.14" x2="37.95" y2="119.64"/>
      <line class="uuid-09ada242-3280-4a0c-8bfa-9258d123641f" x1="37.45" y1="119.64" x2="47.45" y2="119.64"/>
      <line class="uuid-743f287d-a35c-4611-98b4-c72d85b68c1d" x1="37.45" y1="109.64" x2="43.45" y2="109.64"/>
      <line class="uuid-09ada242-3280-4a0c-8bfa-9258d123641f" x1="37.45" y1="99.64" x2="47.45" y2="99.64"/>
      <line class="uuid-743f287d-a35c-4611-98b4-c72d85b68c1d" x1="37.45" y1="89.64" x2="43.45" y2="89.64"/>
      <line class="uuid-09ada242-3280-4a0c-8bfa-9258d123641f" x1="37.45" y1="79.64" x2="47.45" y2="79.64"/>
      <line class="uuid-743f287d-a35c-4611-98b4-c72d85b68c1d" x1="37.45" y1="69.64" x2="43.45" y2="69.64"/>
      <line class="uuid-09ada242-3280-4a0c-8bfa-9258d123641f" x1="37.45" y1="59.64" x2="47.45" y2="59.64"/>
      <line class="uuid-743f287d-a35c-4611-98b4-c72d85b68c1d" x1="37.45" y1="49.64" x2="43.45" y2="49.64"/>
      <line class="uuid-09ada242-3280-4a0c-8bfa-9258d123641f" x1="37.45" y1="39.64" x2="47.45" y2="39.64"/>
      <line class="uuid-743f287d-a35c-4611-98b4-c72d85b68c1d" x1="37.45" y1="29.64" x2="43.45" y2="29.64"/>
      <line class="uuid-09ada242-3280-4a0c-8bfa-9258d123641f" x1="37.45" y1="20.14" x2="47.45" y2="20.14"/>
    </g>
    <g>
      <line class="uuid-09ada242-3280-4a0c-8bfa-9258d123641f" x1="116.95" y1="19.14" x2="116.95" y2="119.64"/>
      <line class="uuid-09ada242-3280-4a0c-8bfa-9258d123641f" x1="117.45" y1="119.64" x2="107.45" y2="119.64"/>
      <line class="uuid-743f287d-a35c-4611-98b4-c72d85b68c1d" x1="117.45" y1="109.64" x2="111.45" y2="109.64"/>
      <line class="uuid-09ada242-3280-4a0c-8bfa-9258d123641f" x1="117.45" y1="99.64" x2="107.45" y2="99.64"/>
      <line class="uuid-743f287d-a35c-4611-98b4-c72d85b68c1d" x1="117.45" y1="89.64" x2="111.45" y2="89.64"/>
      <line class="uuid-09ada242-3280-4a0c-8bfa-9258d123641f" x1="117.45" y1="79.64" x2="107.45" y2="79.64"/>
      <line class="uuid-743f287d-a35c-4611-98b4-c72d85b68c1d" x1="117.45" y1="69.64" x2="111.45" y2="69.64"/>
      <line class="uuid-09ada242-3280-4a0c-8bfa-9258d123641f" x1="117.45" y1="59.64" x2="107.45" y2="59.64"/>
      <line class="uuid-743f287d-a35c-4611-98b4-c72d85b68c1d" x1="117.45" y1="49.64" x2="111.45" y2="49.64"/>
      <line class="uuid-09ada242-3280-4a0c-8bfa-9258d123641f" x1="117.45" y1="39.64" x2="107.45" y2="39.64"/>
      <line class="uuid-743f287d-a35c-4611-98b4-c72d85b68c1d" x1="117.45" y1="29.64" x2="111.45" y2="29.64"/>
      <line class="uuid-09ada242-3280-4a0c-8bfa-9258d123641f" x1="117.45" y1="20.14" x2="107.45" y2="20.14"/>
    </g>
    <g>
      <path class="uuid-13cedb96-c3b6-40d2-9e8d-499dbe5a93ed" d="M71.49,123.95c0,.56-.28,.84-.83,.84h-2.76c-.55,0-.83-.28-.83-.84v-2.19h1.37v1.87h1.68v-1.8l-2.75-2.6c-.2-.19-.3-.44-.3-.73v-2.04c0-.56,.28-.84,.83-.84h2.76c.55,0,.83,.28,.83,.83v2.05h-1.37v-1.73h-1.68v1.66l2.75,2.59c.2,.19,.3,.44,.3,.74v2.19Z"/>
      <path class="uuid-13cedb96-c3b6-40d2-9e8d-499dbe5a93ed" d="M76.56,116.83h-1.51v7.96h-1.37v-7.96h-1.51v-1.21h4.39v1.21Z"/>
      <path class="uuid-13cedb96-c3b6-40d2-9e8d-499dbe5a93ed" d="M81.88,123.95c0,.56-.28,.84-.83,.84h-2.98c-.54,0-.81-.28-.81-.84v-7.49c0-.56,.27-.84,.81-.84h2.98c.55,0,.83,.28,.83,.84v7.49Zm-1.37-.34v-6.81h-1.88v6.81h1.88Z"/>
      <path class="uuid-13cedb96-c3b6-40d2-9e8d-499dbe5a93ed" d="M87.42,120.61c0,.57-.28,.86-.84,.86h-2.22v3.32h-1.37v-9.17h3.59c.56,0,.84,.28,.84,.84v4.15Zm-1.38-.32v-3.49h-1.68v3.49h1.68Z"/>
    </g>
    <g>
      <path class="uuid-7adc473d-5b66-4271-aa48-7256cafe409d" d="M67.87,109.47c0,.37-.19,.56-.55,.56h-1.84c-.37,0-.55-.19-.55-.56v-1.46h.91v1.25h1.12v-1.2l-1.83-1.73c-.13-.13-.2-.29-.2-.49v-1.36c0-.38,.18-.56,.55-.56h1.84c.37,0,.55,.18,.55,.55v1.37h-.91v-1.15h-1.12v1.11l1.83,1.73c.13,.12,.2,.29,.2,.5v1.46Z"/>
      <path class="uuid-7adc473d-5b66-4271-aa48-7256cafe409d" d="M71.25,104.72h-1.01v5.3h-.91v-5.3h-1.01v-.81h2.93v.81Z"/>
      <path class="uuid-7adc473d-5b66-4271-aa48-7256cafe409d" d="M74.82,110.03h-.91l-.18-1.16h-1.14l-.18,1.16h-.9v-.02l1.18-6.11h.96l1.18,6.12Zm-1.22-1.95l-.45-2.76-.45,2.76h.89Z"/>
      <path class="uuid-7adc473d-5b66-4271-aa48-7256cafe409d" d="M78.43,110.03h-.8l-1.46-3.85c.04,.19,.06,.33,.06,.44v3.41h-.89v-6.11h.8l1.46,3.77c-.04-.19-.06-.33-.06-.44v-3.33h.89v6.11Z"/>
      <path class="uuid-7adc473d-5b66-4271-aa48-7256cafe409d" d="M82.21,108.88c0,.36-.11,.64-.32,.85-.21,.2-.5,.31-.86,.31h-1.86v-6.11h1.86c.36,0,.65,.1,.86,.31,.21,.21,.32,.49,.32,.85v3.8Zm-.92-.15v-3.51c0-.34-.18-.51-.54-.51h-.68v4.54h.66c.37,0,.56-.17,.56-.52Z"/>
      <path class="uuid-7adc473d-5b66-4271-aa48-7256cafe409d" d="M85.91,109.47c0,.37-.19,.56-.56,.56h-2.44v-6.11h2.43c.36,0,.54,.19,.54,.56v1.57c0,.21-.07,.37-.2,.48-.02,.02-.18,.12-.48,.3,.31,.19,.47,.29,.49,.31,.14,.12,.21,.29,.21,.5v1.82Zm-.94-3.3v-1.48h-1.14v1.79h.7l.44-.31Zm.02,3.09v-1.74l-.45-.3h-.72v2.04h1.17Z"/>
      <path class="uuid-7adc473d-5b66-4271-aa48-7256cafe409d" d="M89.71,103.95l-.81,2.55c-.1,.25-.23,.68-.4,1.28v2.25h-.92v-2.25c-.04-.2-.1-.42-.18-.64-.14-.39-.21-.6-.22-.63l-.8-2.55s0-.01,0-.04h.94l.73,2.66,.73-2.66h.94v.04Z"/>
    </g>
    <g>
      <path class="uuid-7adc473d-5b66-4271-aa48-7256cafe409d" d="M67.77,129.72h-1.58v1.81h1.35v.79h-1.35v2.7h-.91v-6.11h2.5v.81Z"/>
      <path class="uuid-7adc473d-5b66-4271-aa48-7256cafe409d" d="M69.21,135.03h-.91v-6.11h.91v6.11Z"/>
      <path class="uuid-7adc473d-5b66-4271-aa48-7256cafe409d" d="M73.06,135.03h-.8l-1.46-3.85c.04,.19,.06,.33,.06,.44v3.41h-.89v-6.11h.8l1.46,3.77c-.04-.19-.06-.33-.06-.44v-3.33h.89v6.11Z"/>
      <path class="uuid-7adc473d-5b66-4271-aa48-7256cafe409d" d="M74.73,135.03h-.91v-6.11h.91v6.11Z"/>
      <path class="uuid-7adc473d-5b66-4271-aa48-7256cafe409d" d="M78.41,134.47c0,.37-.19,.56-.55,.56h-1.84c-.37,0-.55-.19-.55-.56v-1.46h.91v1.25h1.12v-1.2l-1.83-1.73c-.13-.13-.2-.29-.2-.49v-1.36c0-.38,.18-.56,.55-.56h1.84c.37,0,.55,.18,.55,.55v1.37h-.91v-1.15h-1.12v1.11l1.83,1.73c.13,.12,.2,.29,.2,.5v1.46Z"/>
      <path class="uuid-7adc473d-5b66-4271-aa48-7256cafe409d" d="M82.21,135.03h-.92v-2.74h-1.24v2.74h-.91v-6.11h.91v2.52h1.24v-2.52h.92v6.11Z"/>
      <path class="uuid-7adc473d-5b66-4271-aa48-7256cafe409d" d="M85.47,135.03h-2.54v-6.11h2.51v.81h-1.6v1.79h1.38v.79h-1.38v1.92h1.62v.81Z"/>
      <path class="uuid-7adc473d-5b66-4271-aa48-7256cafe409d" d="M89.14,133.88c0,.36-.11,.64-.32,.85-.21,.2-.5,.31-.86,.31h-1.86v-6.11h1.86c.36,0,.65,.1,.86,.31,.21,.21,.32,.49,.32,.85v3.8Zm-.92-.15v-3.51c0-.34-.18-.51-.54-.51h-.68v4.54h.66c.37,0,.56-.17,.56-.52Z"/>
    </g>
    <g>
      <path class="uuid-d488453b-b2ca-4007-9398-ca5b642542d0" d="M60.28,93.06c0,.54-.16,.96-.48,1.27s-.75,.46-1.29,.46h-2.79v-9.17h2.79c.54,0,.97,.16,1.29,.47s.48,.74,.48,1.27v5.7Zm-1.38-.23v-5.27c0-.51-.27-.77-.8-.77h-1.02v6.81h.98c.56,0,.84-.26,.84-.78Z"/>
      <path class="uuid-d488453b-b2ca-4007-9398-ca5b642542d0" d="M65.15,94.79h-3.8v-9.17h3.77v1.21h-2.4v2.68h2.06v1.19h-2.06v2.88h2.43v1.21Z"/>
      <path class="uuid-d488453b-b2ca-4007-9398-ca5b642542d0" d="M70.73,94.79h-1.36l-.28-1.74h-1.72l-.28,1.74h-1.35v-.02l1.78-9.16h1.44l1.76,9.18Zm-1.83-2.92l-.67-4.14-.67,4.14h1.34Z"/>
      <path class="uuid-d488453b-b2ca-4007-9398-ca5b642542d0" d="M76.07,93.06c0,.54-.16,.96-.48,1.27s-.75,.46-1.29,.46h-2.79v-9.17h2.79c.54,0,.97,.16,1.29,.47s.48,.74,.48,1.27v5.7Zm-1.38-.23v-5.27c0-.51-.27-.77-.8-.77h-1.02v6.81h.98c.56,0,.84-.26,.84-.78Z"/>
      <path class="uuid-d488453b-b2ca-4007-9398-ca5b642542d0" d="M81.52,93.95c0,.56-.28,.84-.83,.84h-2.76c-.55,0-.83-.28-.83-.84v-2.19h1.37v1.87h1.68v-1.8l-2.75-2.6c-.2-.19-.3-.44-.3-.73v-2.04c0-.56,.28-.84,.83-.84h2.76c.55,0,.83,.28,.83,.83v2.05h-1.37v-1.73h-1.68v1.66l2.75,2.59c.2,.19,.3,.44,.3,.74v2.19Z"/>
      <path class="uuid-d488453b-b2ca-4007-9398-ca5b642542d0" d="M86.22,94.79h-3.6v-9.17h1.37v7.95h2.23v1.22Z"/>
      <path class="uuid-d488453b-b2ca-4007-9398-ca5b642542d0" d="M91.65,93.95c0,.56-.28,.84-.83,.84h-2.98c-.54,0-.81-.28-.81-.84v-7.49c0-.56,.27-.84,.81-.84h2.98c.55,0,.83,.28,.83,.84v7.49Zm-1.37-.34v-6.81h-1.88v6.81h1.88Z"/>
      <path class="uuid-d488453b-b2ca-4007-9398-ca5b642542d0" d="M99.52,85.62l-1.34,9.18h-1.34l-.82-5.2c0-.19-.02-.47-.05-.84,0,.19-.02,.47-.05,.84l-.81,5.2h-1.35l-1.34-9.18h1.39l.71,5.44c.01,.19,.03,.47,.05,.84,0-.19,.02-.47,.05-.84l.79-5.44h1.12l.79,5.44c.01,.19,.03,.47,.05,.84,0-.19,.02-.47,.05-.84l.71-5.44h1.39Z"/>
    </g>
    <g>
      <path class="uuid-13cedb96-c3b6-40d2-9e8d-499dbe5a93ed" d="M60.28,153.06c0,.54-.16,.96-.48,1.27s-.75,.46-1.29,.46h-2.79v-9.17h2.79c.54,0,.97,.16,1.29,.47s.48,.74,.48,1.27v5.7Zm-1.38-.23v-5.27c0-.51-.27-.77-.8-.77h-1.02v6.81h.98c.56,0,.84-.26,.84-.78Z"/>
      <path class="uuid-13cedb96-c3b6-40d2-9e8d-499dbe5a93ed" d="M65.15,154.79h-3.8v-9.17h3.77v1.21h-2.4v2.68h2.06v1.19h-2.06v2.88h2.43v1.21Z"/>
      <path class="uuid-13cedb96-c3b6-40d2-9e8d-499dbe5a93ed" d="M70.73,154.79h-1.36l-.28-1.74h-1.72l-.28,1.74h-1.35v-.02l1.78-9.16h1.44l1.76,9.18Zm-1.83-2.92l-.67-4.14-.67,4.14h1.34Z"/>
      <path class="uuid-13cedb96-c3b6-40d2-9e8d-499dbe5a93ed" d="M76.07,153.06c0,.54-.16,.96-.48,1.27s-.75,.46-1.29,.46h-2.79v-9.17h2.79c.54,0,.97,.16,1.29,.47s.48,.74,.48,1.27v5.7Zm-1.38-.23v-5.27c0-.51-.27-.77-.8-.77h-1.02v6.81h.98c.56,0,.84-.26,.84-.78Z"/>
      <path class="uuid-13cedb96-c3b6-40d2-9e8d-499dbe5a93ed" d="M81.52,153.95c0,.56-.28,.84-.83,.84h-2.76c-.55,0-.83-.28-.83-.84v-2.19h1.37v1.87h1.68v-1.8l-2.75-2.6c-.2-.19-.3-.44-.3-.73v-2.04c0-.56,.28-.84,.83-.84h2.76c.55,0,.83,.28,.83,.83v2.05h-1.37v-1.73h-1.68v1.66l2.75,2.59c.2,.19,.3,.44,.3,.74v2.19Z"/>
      <path class="uuid-13cedb96-c3b6-40d2-9e8d-499dbe5a93ed" d="M86.22,154.79h-3.6v-9.17h1.37v7.95h2.23v1.22Z"/>
      <path class="uuid-13cedb96-c3b6-40d2-9e8d-499dbe5a93ed" d="M91.65,153.95c0,.56-.28,.84-.83,.84h-2.98c-.54,0-.81-.28-.81-.84v-7.49c0-.56,.27-.84,.81-.84h2.98c.55,0,.83,.28,.83,.84v7.49Zm-1.37-.34v-6.81h-1.88v6.81h1.88Z"/>
      <path class="uuid-13cedb96-c3b6-40d2-9e8d-499dbe5a93ed" d="M99.52,145.62l-1.34,9.18h-1.34l-.82-5.2c0-.19-.02-.47-.05-.84,0,.19-.02,.47-.05,.84l-.81,5.2h-1.35l-1.34-9.18h1.39l.71,5.44c.01,.19,.03,.47,.05,.84,0-.19,.02-.47,.05-.84l.79-5.44h1.12l.79,5.44c.01,.19,.03,.47,.05,.84,0-.19,.02-.47,.05-.84l.71-5.44h1.39Z"/>
    </g>
    <g>
      <path class="uuid-d488453b-b2ca-4007-9398-ca5b642542d0" d="M70.56,73.95c0,.56-.28,.84-.83,.84h-2.76c-.55,0-.83-.28-.83-.84v-2.19h1.37v1.87h1.68v-1.8l-2.75-2.6c-.2-.19-.3-.44-.3-.73v-2.04c0-.56,.28-.84,.83-.84h2.76c.55,0,.83,.28,.83,.83v2.05h-1.37v-1.73h-1.68v1.66l2.75,2.59c.2,.19,.3,.44,.3,.74v2.19Z"/>
      <path class="uuid-d488453b-b2ca-4007-9398-ca5b642542d0" d="M75.25,74.79h-3.6v-9.17h1.37v7.95h2.23v1.22Z"/>
      <path class="uuid-d488453b-b2ca-4007-9398-ca5b642542d0" d="M80.69,73.95c0,.56-.28,.84-.83,.84h-2.98c-.54,0-.81-.28-.81-.84v-7.49c0-.56,.27-.84,.81-.84h2.98c.55,0,.83,.28,.83,.84v7.49Zm-1.37-.34v-6.81h-1.88v6.81h1.88Z"/>
      <path class="uuid-d488453b-b2ca-4007-9398-ca5b642542d0" d="M88.56,65.62l-1.34,9.18h-1.34l-.82-5.2c0-.19-.02-.47-.05-.84,0,.19-.02,.47-.05,.84l-.81,5.2h-1.35l-1.34-9.18h1.39l.71,5.44c.01,.19,.03,.47,.05,.84,0-.19,.02-.47,.05-.84l.79-5.44h1.12l.79,5.44c.01,.19,.03,.47,.05,.84,0-.19,.02-.47,.05-.84l.71-5.44h1.39Z"/>
    </g>
    <g>
      <path class="uuid-13cedb96-c3b6-40d2-9e8d-499dbe5a93ed" d="M70.56,173.95c0,.56-.28,.84-.83,.84h-2.76c-.55,0-.83-.28-.83-.84v-2.19h1.37v1.87h1.68v-1.8l-2.75-2.6c-.2-.19-.3-.44-.3-.73v-2.04c0-.56,.28-.84,.83-.84h2.76c.55,0,.83,.28,.83,.83v2.05h-1.37v-1.73h-1.68v1.66l2.75,2.59c.2,.19,.3,.44,.3,.74v2.19Z"/>
      <path class="uuid-13cedb96-c3b6-40d2-9e8d-499dbe5a93ed" d="M75.25,174.79h-3.6v-9.17h1.37v7.95h2.23v1.22Z"/>
      <path class="uuid-13cedb96-c3b6-40d2-9e8d-499dbe5a93ed" d="M80.69,173.95c0,.56-.28,.84-.83,.84h-2.98c-.54,0-.81-.28-.81-.84v-7.49c0-.56,.27-.84,.81-.84h2.98c.55,0,.83,.28,.83,.84v7.49Zm-1.37-.34v-6.81h-1.88v6.81h1.88Z"/>
      <path class="uuid-13cedb96-c3b6-40d2-9e8d-499dbe5a93ed" d="M88.56,165.62l-1.34,9.18h-1.34l-.82-5.2c0-.19-.02-.47-.05-.84,0,.19-.02,.47-.05,.84l-.81,5.2h-1.35l-1.34-9.18h1.39l.71,5.44c.01,.19,.03,.47,.05,.84,0-.19,.02-.47,.05-.84l.79-5.44h1.12l.79,5.44c.01,.19,.03,.47,.05,.84,0-.19,.02-.47,.05-.84l.71-5.44h1.39Z"/>
    </g>
    <g>
      <path class="uuid-d488453b-b2ca-4007-9398-ca5b642542d0" d="M72.32,54.79h-1.38v-4.11h-1.86v4.11h-1.37v-9.17h1.37v3.78h1.86v-3.78h1.38v9.17Z"/>
      <path class="uuid-d488453b-b2ca-4007-9398-ca5b642542d0" d="M78.06,54.79h-1.36l-.28-1.74h-1.72l-.28,1.74h-1.35v-.02l1.78-9.16h1.44l1.76,9.18Zm-1.83-2.92l-.67-4.14-.67,4.14h1.34Z"/>
      <path class="uuid-d488453b-b2ca-4007-9398-ca5b642542d0" d="M82.43,54.79h-3.6v-9.17h1.37v7.95h2.23v1.22Z"/>
      <path class="uuid-d488453b-b2ca-4007-9398-ca5b642542d0" d="M86.99,46.83h-2.37v2.71h2.03v1.19h-2.03v4.05h-1.37v-9.17h3.74v1.21Z"/>
    </g>
    <g>
      <path class="uuid-13cedb96-c3b6-40d2-9e8d-499dbe5a93ed" d="M72.32,194.79h-1.38v-4.11h-1.86v4.11h-1.37v-9.17h1.37v3.78h1.86v-3.78h1.38v9.17Z"/>
      <path class="uuid-13cedb96-c3b6-40d2-9e8d-499dbe5a93ed" d="M78.06,194.79h-1.36l-.28-1.74h-1.72l-.28,1.74h-1.35v-.02l1.78-9.16h1.44l1.76,9.18Zm-1.83-2.92l-.67-4.14-.67,4.14h1.34Z"/>
      <path class="uuid-13cedb96-c3b6-40d2-9e8d-499dbe5a93ed" d="M82.43,194.79h-3.6v-9.17h1.37v7.95h2.23v1.22Z"/>
      <path class="uuid-13cedb96-c3b6-40d2-9e8d-499dbe5a93ed" d="M86.99,186.83h-2.37v2.71h2.03v1.19h-2.03v4.05h-1.37v-9.17h3.74v1.21Z"/>
    </g>
    <g>
      <path class="uuid-d488453b-b2ca-4007-9398-ca5b642542d0" d="M71.96,26.83h-2.37v2.71h2.03v1.19h-2.03v4.05h-1.37v-9.17h3.74v1.21Z"/>
      <path class="uuid-d488453b-b2ca-4007-9398-ca5b642542d0" d="M77.33,33.95c0,.56-.28,.84-.84,.84h-2.91c-.55,0-.83-.28-.83-.84v-8.33h1.37v7.99h1.85v-7.99h1.37v8.33Z"/>
      <path class="uuid-d488453b-b2ca-4007-9398-ca5b642542d0" d="M82.03,34.79h-3.6v-9.17h1.37v7.95h2.23v1.22Z"/>
      <path class="uuid-d488453b-b2ca-4007-9398-ca5b642542d0" d="M86.45,34.79h-3.6v-9.17h1.37v7.95h2.23v1.22Z"/>
    </g>
    <g>
      <path class="uuid-13cedb96-c3b6-40d2-9e8d-499dbe5a93ed" d="M71.96,206.83h-2.37v2.71h2.03v1.19h-2.03v4.05h-1.37v-9.17h3.74v1.21Z"/>
      <path class="uuid-13cedb96-c3b6-40d2-9e8d-499dbe5a93ed" d="M77.33,213.95c0,.56-.28,.84-.84,.84h-2.91c-.55,0-.83-.28-.83-.84v-8.33h1.37v7.99h1.85v-7.99h1.37v8.33Z"/>
      <path class="uuid-13cedb96-c3b6-40d2-9e8d-499dbe5a93ed" d="M82.03,214.79h-3.6v-9.17h1.37v7.95h2.23v1.22Z"/>
      <path class="uuid-13cedb96-c3b6-40d2-9e8d-499dbe5a93ed" d="M86.45,214.79h-3.6v-9.17h1.37v7.95h2.23v1.22Z"/>
    </g>
  </g>
  <g id="uuid-6753ab80-f3b6-49c3-93ba-345f0e131c14" data-name="图层 5">
    <g>
      <line class="uuid-743f287d-a35c-4611-98b4-c72d85b68c1d" x1="20.45" y1="19.5" x2="20.45" y2="109.5"/>
      <line class="uuid-743f287d-a35c-4611-98b4-c72d85b68c1d" x1="19.98" y1="109.5" x2="24.92" y2="109.5"/>
      <line class="uuid-743f287d-a35c-4611-98b4-c72d85b68c1d" x1="19.95" y1="19.81" x2="24.95" y2="19.81"/>
    </g>
    <g>
      <line class="uuid-e31c4e57-48b0-478a-b851-2edbd63972f6" x1="20.45" y1="129.5" x2="20.45" y2="219.5"/>
      <line class="uuid-e31c4e57-48b0-478a-b851-2edbd63972f6" x1="19.98" y1="219.5" x2="24.92" y2="219.5"/>
      <line class="uuid-e31c4e57-48b0-478a-b851-2edbd63972f6" x1="19.95" y1="129.81" x2="24.95" y2="129.81"/>
    </g>
    <g>
      <path class="uuid-d488453b-b2ca-4007-9398-ca5b642542d0" d="M17.46,75.2v1.02l-1.31,.21v1.29l1.31,.21v1.02h-.02l-6.87-1.33v-1.08l6.89-1.32Zm-2.19,1.37l-3.1,.5,3.1,.51v-1.01Z"/>
      <path class="uuid-d488453b-b2ca-4007-9398-ca5b642542d0" d="M17.46,71.17v1.04h-3.08v1.39h3.08v1.03h-6.88v-1.03h2.83v-1.39h-2.83v-1.04h6.88Z"/>
      <path class="uuid-d488453b-b2ca-4007-9398-ca5b642542d0" d="M17.46,67.5v2.85h-6.88v-2.83h.91v1.8h2.01v-1.55h.89v1.55h2.16v-1.82h.91Z"/>
      <path class="uuid-d488453b-b2ca-4007-9398-ca5b642542d0" d="M17.46,63.31v1.02l-1.31,.21v1.29l1.31,.21v1.02h-.02l-6.87-1.33v-1.08l6.89-1.32Zm-2.19,1.37l-3.1,.5,3.1,.51v-1.01Z"/>
      <path class="uuid-d488453b-b2ca-4007-9398-ca5b642542d0" d="M16.17,59.31c.4,0,.72,.12,.95,.36s.34,.56,.34,.97v2.1h-6.88v-2.1c0-.41,.12-.73,.35-.97,.23-.24,.55-.36,.96-.36h4.28Zm-.17,1.03h-3.95c-.38,0-.58,.2-.58,.6v.76h5.11v-.74c0-.42-.19-.63-.58-.63Z"/>
    </g>
    <g>
      <path class="uuid-13cedb96-c3b6-40d2-9e8d-499dbe5a93ed" d="M17.46,177.96v1.02l-1.31,.21v1.29l1.31,.21v1.02h-.02l-6.87-1.33v-1.08l6.89-1.32Zm-2.19,1.37l-3.1,.5,3.1,.5v-1.01Z"/>
      <path class="uuid-13cedb96-c3b6-40d2-9e8d-499dbe5a93ed" d="M16.83,174.09c.42,0,.63,.21,.63,.62v2.07c0,.41-.21,.62-.63,.62h-1.64v-1.03h1.4v-1.26h-1.35l-1.95,2.06c-.14,.15-.33,.22-.55,.22h-1.53c-.42,0-.63-.21-.63-.62v-2.07c0-.42,.21-.62,.62-.62h1.54v1.03h-1.3v1.26h1.24l1.94-2.06c.14-.15,.33-.22,.56-.22h1.64Z"/>
      <path class="uuid-13cedb96-c3b6-40d2-9e8d-499dbe5a93ed" d="M11.5,170.29v1.13h5.97v1.02h-5.97v1.13h-.91v-3.29h.91Z"/>
      <path class="uuid-13cedb96-c3b6-40d2-9e8d-499dbe5a93ed" d="M17.46,166.91v2.85h-6.88v-2.83h.91v1.8h2.01v-1.55h.89v1.55h2.16v-1.82h.91Z"/>
      <path class="uuid-13cedb96-c3b6-40d2-9e8d-499dbe5a93ed" d="M17.46,162.69v1.07l-3.19,1.13h-.62v-1.01h-2.18v1.3h5.99v1.03h-6.88v-2.73c0-.41,.21-.62,.63-.62h2.5c.29,0,.48,.1,.56,.29,.04,.11,.07,.33,.07,.67l3.12-1.13Z"/>
      <path class="uuid-13cedb96-c3b6-40d2-9e8d-499dbe5a93ed" d="M17.46,158.58v.9l-4.33,1.65c.21-.04,.38-.07,.5-.07h3.83v1h-6.88v-.9l4.24-1.65c-.21,.04-.38,.07-.5,.07h-3.74v-1h6.88Z"/>
    </g>
  </g>
</svg>