<?xml version="1.0" encoding="utf-8"?>
<!-- Generator: Adobe Illustrator 26.5.0, SVG Export Plug-In . SVG Version: 6.00 Build 0)  -->
<svg version="1.1" id="图层_2" xmlns="http://www.w3.org/2000/svg" xmlns:xlink="http://www.w3.org/1999/xlink" x="0px" y="0px"
	 viewBox="0 0 240 240" style="enable-background:new 0 0 240 240;" xml:space="preserve">
<style type="text/css">
	.st0{fill:none;stroke:#000000;stroke-width:1.75;stroke-miterlimit:10;}
	.st1{fill:none;stroke:#000000;stroke-width:1.5;stroke-miterlimit:10;}
</style>
<line class="st0" x1="120" y1="120" x2="120" y2="36.2"/>
<line class="st1" x1="120" y1="120" x2="112.9" y2="39.3"/>
<line class="st1" x1="120" y1="120" x2="99" y2="41.7"/>
<line class="st1" x1="120" y1="120" x2="105.4" y2="37.4"/>
<line class="st0" x1="120" y1="120" x2="91.3" y2="41.2"/>
<line class="st1" x1="120" y1="120" x2="85.8" y2="46.6"/>
<line class="st1" x1="120" y1="120" x2="73.5" y2="53.6"/>
<line class="st1" x1="120" y1="120" x2="78.1" y2="47.4"/>
<line class="st0" x1="120" y1="120" x2="66.1" y2="55.8"/>
<line class="st1" x1="120" y1="120" x2="62.7" y2="62.7"/>
<line class="st1" x1="120" y1="120" x2="53.6" y2="73.5"/>
<line class="st1" x1="120" y1="120" x2="55.8" y2="66.1"/>
<line class="st0" x1="120" y1="120" x2="47.4" y2="78.1"/>
<line class="st1" x1="120" y1="120" x2="46.6" y2="85.7"/>
<line class="st1" x1="120" y1="120" x2="41.7" y2="99"/>
<line class="st1" x1="120" y1="120" x2="41.2" y2="91.3"/>
<line class="st0" x1="120" y1="120" x2="37.4" y2="105.4"/>
<line class="st1" x1="120" y1="120" x2="39.3" y2="112.9"/>
<line class="st1" x1="120" y1="120" x2="39.3" y2="127.1"/>
<line class="st1" x1="120" y1="120" x2="36.2" y2="120"/>
<line class="st0" x1="120" y1="120" x2="37.4" y2="134.6"/>
<line class="st1" x1="120" y1="120" x2="41.7" y2="141"/>
<line class="st1" x1="120" y1="120" x2="46.6" y2="154.2"/>
<line class="st1" x1="120" y1="120" x2="41.2" y2="148.7"/>
<line class="st0" x1="120" y1="120" x2="47.4" y2="161.9"/>
<line class="st1" x1="120" y1="120" x2="53.6" y2="166.5"/>
<line class="st1" x1="120" y1="120" x2="62.7" y2="177.3"/>
<line class="st1" x1="120" y1="120" x2="55.8" y2="173.9"/>
<line class="st0" x1="120" y1="120" x2="66.1" y2="184.2"/>
<line class="st1" x1="120" y1="120" x2="73.5" y2="186.4"/>
<line class="st1" x1="120" y1="120" x2="85.7" y2="193.4"/>
<line class="st1" x1="120" y1="120" x2="78.1" y2="192.6"/>
<line class="st0" x1="120" y1="120" x2="91.3" y2="198.8"/>
<line class="st1" x1="120" y1="120" x2="99" y2="198.3"/>
<line class="st1" x1="120" y1="120" x2="112.9" y2="200.7"/>
<line class="st1" x1="120" y1="120" x2="105.4" y2="202.6"/>
<line class="st0" x1="120" y1="120" x2="120" y2="203.8"/>
<line class="st1" x1="120" y1="120" x2="127.1" y2="200.7"/>
<line class="st1" x1="120" y1="120" x2="141" y2="198.3"/>
<line class="st1" x1="120" y1="120" x2="134.6" y2="202.6"/>
<line class="st0" x1="120" y1="120" x2="148.7" y2="198.8"/>
<line class="st1" x1="120" y1="120" x2="154.2" y2="193.4"/>
<line class="st1" x1="120" y1="120" x2="166.5" y2="186.4"/>
<line class="st1" x1="120" y1="120" x2="161.9" y2="192.6"/>
<line class="st0" x1="120" y1="120" x2="173.9" y2="184.2"/>
<line class="st1" x1="120" y1="120" x2="177.3" y2="177.3"/>
<line class="st1" x1="120" y1="120" x2="186.4" y2="166.5"/>
<line class="st1" x1="120" y1="120" x2="184.2" y2="173.9"/>
<line class="st0" x1="120" y1="120" x2="192.6" y2="161.9"/>
<line class="st1" x1="120" y1="120" x2="193.4" y2="154.3"/>
<line class="st1" x1="120" y1="120" x2="198.3" y2="141"/>
<line class="st1" x1="120" y1="120" x2="198.8" y2="148.7"/>
<line class="st0" x1="120" y1="120" x2="202.6" y2="134.6"/>
<line class="st1" x1="120" y1="120" x2="200.7" y2="127.1"/>
<line class="st1" x1="120" y1="120" x2="200.7" y2="112.9"/>
<line class="st1" x1="120" y1="120" x2="203.8" y2="120"/>
<line class="st0" x1="120" y1="120" x2="202.6" y2="105.4"/>
<line class="st1" x1="120" y1="120" x2="198.3" y2="99"/>
<line class="st1" x1="120" y1="120" x2="193.4" y2="85.8"/>
<line class="st1" x1="120" y1="120" x2="198.8" y2="91.3"/>
<line class="st0" x1="120" y1="120" x2="192.6" y2="78.1"/>
<line class="st1" x1="120" y1="120" x2="186.4" y2="73.5"/>
<line class="st1" x1="120" y1="120" x2="177.3" y2="62.7"/>
<line class="st1" x1="120" y1="120" x2="184.2" y2="66.1"/>
<line class="st0" x1="120" y1="120" x2="173.9" y2="55.8"/>
<line class="st1" x1="120" y1="120" x2="166.5" y2="53.6"/>
<line class="st1" x1="120" y1="120" x2="154.3" y2="46.6"/>
<line class="st1" x1="120" y1="120" x2="161.9" y2="47.4"/>
<line class="st0" x1="120" y1="120" x2="148.7" y2="41.2"/>
<line class="st1" x1="120" y1="120" x2="141" y2="41.7"/>
<line class="st1" x1="120" y1="120" x2="127.1" y2="39.3"/>
<line class="st1" x1="120" y1="120" x2="134.6" y2="37.4"/>
<g>
	<path d="M117.6,29.9c0,0.5,0,1.1-0.2,1.5c-0.1,0.3-0.2,0.5-0.3,0.7c-0.1,0.2-0.3,0.3-0.5,0.5c-0.2,0.1-0.4,0.2-0.6,0.2
		c-0.3,0-0.5,0-0.7-0.2c-0.2-0.1-0.4-0.3-0.6-0.6c-0.1-0.2-0.2-0.4-0.3-0.7c-0.1-0.4-0.2-0.8-0.2-1.3c0-0.6,0-1.1,0.2-1.6
		c0.1-0.4,0.3-0.7,0.6-1c0.3-0.2,0.6-0.4,0.9-0.4c0.3,0,0.6,0.1,0.9,0.3c0.3,0.2,0.5,0.5,0.6,0.8C117.5,28.7,117.6,29.3,117.6,29.9z
		 M116.4,29.9c0-1-0.1-1.5-0.1-1.7c0-0.4-0.1-0.6-0.2-0.7c-0.1-0.1-0.2-0.1-0.3-0.1c-0.1,0-0.2,0-0.3,0.1c-0.1,0.1-0.2,0.3-0.2,0.5
		c0,0.2,0,1.1,0.1,2.5c0,0.8,0.1,1.3,0.2,1.5c0,0.2,0.1,0.3,0.2,0.4s0.2,0.1,0.3,0.1c0.1,0,0.2-0.1,0.3-0.1c0.1-0.2,0.2-0.4,0.2-0.7
		L116.4,29.9z"/>
	<path d="M121.8,29.8c0,0.5-0.1,1.1-0.2,1.5c-0.1,0.3-0.2,0.5-0.4,0.7c-0.2,0.2-0.3,0.3-0.5,0.4c-0.2,0.1-0.4,0.2-0.6,0.2
		c-0.3,0-0.5-0.1-0.7-0.2c-0.2-0.1-0.4-0.3-0.6-0.6c-0.1-0.2-0.2-0.4-0.3-0.7c-0.1-0.4-0.2-0.8-0.2-1.3c0-0.6,0.1-1.1,0.3-1.6
		c0.1-0.4,0.3-0.7,0.6-0.9c0.3-0.2,0.6-0.3,0.9-0.3c0.3,0,0.6,0.1,0.9,0.3c0.3,0.2,0.5,0.5,0.6,0.9
		C121.7,28.7,121.8,29.2,121.8,29.8z M120.6,29.8c0-1,0-1.5,0-1.7c0-0.4-0.1-0.6-0.2-0.8c-0.1-0.1-0.2-0.1-0.3-0.1
		c-0.1,0-0.2,0-0.3,0.1c-0.1,0.1-0.2,0.3-0.2,0.5c0,0.2-0.1,1.1-0.1,2.5c0,0.8,0,1.3,0.1,1.6c0,0.2,0.1,0.3,0.2,0.4
		c0.1,0.1,0.2,0.1,0.3,0.1c0.1,0,0.2,0,0.3-0.1c0.1-0.2,0.2-0.4,0.2-0.7L120.6,29.8z"/>
	<path d="M126,30c0,0.5-0.1,1-0.3,1.5c-0.1,0.3-0.2,0.5-0.4,0.7c-0.2,0.2-0.3,0.3-0.5,0.4c-0.2,0.1-0.4,0.1-0.6,0.1
		c-0.3,0-0.5-0.1-0.7-0.2c-0.2-0.1-0.4-0.3-0.5-0.6c-0.1-0.2-0.2-0.4-0.3-0.7c-0.1-0.4-0.1-0.8-0.1-1.3c0-0.6,0.1-1.1,0.3-1.6
		c0.2-0.4,0.4-0.7,0.7-0.9c0.3-0.2,0.6-0.3,0.9-0.3c0.3,0,0.6,0.1,0.9,0.4c0.3,0.2,0.5,0.5,0.6,0.9C126,28.9,126,29.4,126,30z
		 M124.8,30c0-1,0.1-1.5,0.1-1.7c0-0.4-0.1-0.6-0.2-0.8c-0.1-0.1-0.2-0.1-0.3-0.1c-0.1,0-0.2,0-0.3,0.1c-0.1,0.1-0.2,0.3-0.2,0.5
		c0,0.2-0.1,1.1-0.2,2.5c0,0.8,0,1.3,0,1.6c0,0.2,0.1,0.3,0.2,0.4c0.1,0.1,0.2,0.1,0.3,0.1c0.1,0,0.2,0,0.3-0.1
		c0.1-0.1,0.2-0.4,0.2-0.7L124.8,30z"/>
	<path d="M130.8,30.5c0.1-0.6,0.3-1.1,0.5-1.6s0.5-0.7,0.9-0.9c0.3-0.1,0.5-0.2,0.8-0.2c0.4,0.1,0.8,0.3,1,0.8
		c0.3,0.6,0.4,1.3,0.3,2.2c-0.1,0.6-0.3,1.1-0.5,1.6s-0.5,0.7-0.8,0.9c-0.3,0.2-0.6,0.2-0.9,0.2c-0.5-0.1-0.9-0.4-1.2-1.1
		C130.8,31.9,130.7,31.2,130.8,30.5z M131.6,30.7c-0.1,0.7-0.1,1.4,0,1.9c0.1,0.4,0.3,0.6,0.6,0.7c0.1,0,0.3,0,0.5-0.1
		c0.2-0.1,0.3-0.3,0.4-0.6c0.2-0.4,0.3-1.1,0.5-1.9c0.1-0.6,0.1-1.1,0-1.6c-0.1-0.3-0.1-0.6-0.3-0.7c-0.1-0.1-0.2-0.2-0.4-0.2
		c-0.2,0-0.4,0-0.5,0.2c-0.2,0.2-0.4,0.5-0.5,1C131.8,29.8,131.7,30.2,131.6,30.7z"/>
	<path d="M136.1,29l1.4-0.4l0.1,0l-0.9,4.5c-0.1,0.3-0.1,0.5-0.1,0.6c0,0.1,0.1,0.1,0.1,0.2c0.1,0.1,0.2,0.1,0.5,0.2l0,0.1l-2-0.4
		l0-0.1c0.3,0,0.4,0.1,0.5,0c0.1,0,0.1-0.1,0.2-0.1c0-0.1,0.1-0.2,0.2-0.6l0.5-2.9c0.1-0.4,0.1-0.6,0.1-0.8c0-0.1,0-0.2-0.1-0.2
		c0,0-0.1-0.1-0.2-0.1c-0.1,0-0.2,0-0.4,0L136.1,29z"/>
	<path d="M139.1,31.9c0.1-0.6,0.4-1.1,0.6-1.5c0.3-0.4,0.6-0.7,1-0.8c0.3-0.1,0.5-0.1,0.8-0.1c0.4,0.1,0.7,0.4,1,0.9
		c0.3,0.6,0.3,1.4,0.1,2.2c-0.1,0.6-0.4,1.1-0.6,1.5c-0.3,0.4-0.6,0.6-0.9,0.8c-0.3,0.1-0.6,0.2-0.9,0.1c-0.5-0.1-0.9-0.5-1.1-1.2
		C138.9,33.2,138.9,32.6,139.1,31.9z M139.8,32.2c-0.2,0.7-0.2,1.4-0.2,1.9c0.1,0.4,0.2,0.7,0.5,0.7c0.1,0,0.3,0,0.5-0.1
		c0.2-0.1,0.3-0.3,0.5-0.6c0.2-0.4,0.4-1,0.6-1.9c0.1-0.6,0.2-1.1,0.2-1.6c0-0.3-0.1-0.6-0.2-0.7c-0.1-0.1-0.2-0.2-0.4-0.2
		c-0.2,0-0.4,0-0.5,0.1c-0.2,0.2-0.4,0.5-0.6,0.9C140.1,31.3,140,31.7,139.8,32.2z"/>
	<path d="M145.2,33.4c0.2-0.6,0.4-1.1,0.7-1.5c0.3-0.4,0.7-0.6,1-0.7c0.3-0.1,0.5-0.1,0.8,0c0.4,0.1,0.7,0.4,0.9,0.9
		c0.2,0.6,0.2,1.4,0,2.2c-0.2,0.6-0.4,1.1-0.7,1.5c-0.3,0.4-0.6,0.6-1,0.7c-0.3,0.1-0.6,0.1-0.9,0c-0.5-0.2-0.8-0.6-1-1.3
		C144.9,34.8,145,34.1,145.2,33.4z M145.9,33.8c-0.2,0.7-0.3,1.3-0.3,1.8c0,0.4,0.2,0.7,0.5,0.8c0.1,0,0.3,0,0.5-0.1
		c0.2-0.1,0.4-0.3,0.5-0.5c0.3-0.4,0.5-1,0.8-1.8c0.2-0.6,0.3-1.1,0.3-1.5c0-0.3-0.1-0.6-0.2-0.7c-0.1-0.1-0.2-0.2-0.3-0.2
		c-0.2-0.1-0.4,0-0.5,0.1c-0.3,0.2-0.5,0.5-0.7,0.9S146,33.3,145.9,33.8z"/>
	<path d="M151.9,37.4l-0.7,0.9l-3-1.1l0.1-0.1c1.2-0.5,2.1-0.9,2.6-1.3c0.6-0.4,0.9-0.8,1.1-1.2c0.1-0.3,0.1-0.6,0-0.9
		s-0.3-0.5-0.6-0.6c-0.3-0.1-0.5-0.1-0.8,0c-0.3,0.1-0.5,0.2-0.7,0.5l-0.1-0.1c0.2-0.4,0.5-0.7,0.9-0.9c0.4-0.2,0.7-0.2,1.1,0
		c0.4,0.2,0.7,0.4,0.9,0.8s0.2,0.7,0.1,1.1c-0.1,0.3-0.2,0.5-0.5,0.7c-0.3,0.3-0.8,0.7-1.4,1c-0.9,0.5-1.4,0.7-1.6,0.8l1.3,0.5
		c0.3,0.1,0.5,0.2,0.6,0.2c0.1,0,0.2,0,0.3,0c0.1,0,0.2-0.1,0.3-0.2L151.9,37.4z"/>
	<path d="M153.1,36.1c0.2-0.6,0.5-1,0.9-1.4c0.3-0.3,0.7-0.6,1.1-0.6c0.3-0.1,0.6-0.1,0.8,0c0.4,0.2,0.7,0.5,0.8,1
		c0.2,0.6,0.1,1.4-0.3,2.2c-0.2,0.6-0.5,1-0.9,1.4c-0.3,0.3-0.7,0.5-1,0.6s-0.6,0.1-0.9,0c-0.5-0.2-0.8-0.7-0.8-1.4
		C152.7,37.4,152.8,36.8,153.1,36.1z M153.8,36.5c-0.3,0.7-0.4,1.3-0.5,1.8c0,0.4,0.1,0.7,0.4,0.8c0.1,0.1,0.3,0.1,0.5,0
		s0.4-0.2,0.6-0.5c0.3-0.4,0.6-1,0.9-1.7c0.2-0.6,0.4-1.1,0.4-1.5c0-0.3,0-0.6-0.1-0.8c-0.1-0.1-0.2-0.2-0.3-0.3
		c-0.2-0.1-0.3-0.1-0.5,0c-0.3,0.1-0.5,0.4-0.8,0.8C154.2,35.7,154,36.1,153.8,36.5z"/>
	<path d="M158.9,38.7c0.3-0.6,0.6-1,1-1.3c0.4-0.3,0.7-0.5,1.1-0.6c0.3,0,0.6,0,0.8,0.1c0.4,0.2,0.6,0.5,0.7,1.1
		c0.1,0.7,0,1.4-0.4,2.2c-0.3,0.6-0.6,1-1,1.3c-0.4,0.3-0.7,0.5-1.1,0.5c-0.3,0.1-0.6,0-0.9-0.1c-0.5-0.2-0.7-0.7-0.7-1.4
		C158.4,39.9,158.6,39.3,158.9,38.7z M159.5,39.1c-0.3,0.7-0.5,1.3-0.6,1.8c0,0.4,0.1,0.7,0.3,0.8c0.1,0.1,0.3,0.1,0.5,0
		s0.4-0.2,0.6-0.4c0.3-0.4,0.7-0.9,1-1.7c0.3-0.6,0.5-1.1,0.5-1.5c0.1-0.3,0-0.6,0-0.8c-0.1-0.1-0.2-0.2-0.3-0.3
		c-0.2-0.1-0.3-0.1-0.5,0c-0.3,0.1-0.5,0.4-0.8,0.8C160,38.3,159.8,38.7,159.5,39.1z"/>
	<path d="M163.6,39.1c0.3-0.2,0.6-0.4,0.9-0.5s0.6,0,0.9,0.2c0.4,0.2,0.6,0.5,0.7,0.9c0,0.3,0,0.5-0.1,0.7c-0.2,0.3-0.6,0.6-1.3,0.7
		c0.2,0.3,0.4,0.6,0.4,0.9c0,0.3,0,0.6-0.2,0.9c-0.2,0.4-0.6,0.7-1,0.8c-0.6,0.2-1.2,0.1-1.8-0.2c-0.3-0.2-0.5-0.3-0.6-0.5
		c-0.1-0.1-0.1-0.3,0-0.4c0-0.1,0.1-0.1,0.2-0.1c0.1,0,0.2,0,0.2,0c0.1,0,0.1,0.1,0.2,0.1c0,0,0.1,0.1,0.2,0.3
		c0.1,0.2,0.2,0.3,0.2,0.3c0.1,0.1,0.2,0.1,0.3,0.2c0.2,0.1,0.5,0.2,0.8,0.1c0.3-0.1,0.5-0.3,0.6-0.5c0.1-0.2,0.2-0.4,0.2-0.6
		c0-0.2,0-0.3,0-0.4c0-0.1-0.1-0.3-0.3-0.5c-0.1-0.2-0.3-0.3-0.5-0.4l-0.1-0.1l0.1-0.1c0.2,0.1,0.4,0.1,0.7,0.1s0.5-0.1,0.6-0.2
		c0.2-0.1,0.3-0.3,0.4-0.4c0.1-0.2,0.2-0.5,0.1-0.7c-0.1-0.2-0.2-0.4-0.4-0.5c-0.4-0.2-0.8-0.2-1.2,0.1L163.6,39.1z"/>
	<path d="M166.2,42.6c0.3-0.5,0.7-0.9,1.1-1.2c0.4-0.3,0.8-0.4,1.2-0.5c0.3,0,0.6,0,0.8,0.2c0.4,0.2,0.6,0.6,0.6,1.1
		c0.1,0.7-0.1,1.4-0.6,2.2c-0.3,0.5-0.7,0.9-1.1,1.2c-0.4,0.3-0.8,0.4-1.1,0.4c-0.3,0-0.6,0-0.9-0.2c-0.4-0.3-0.6-0.8-0.6-1.5
		C165.7,43.8,165.9,43.2,166.2,42.6z M166.9,43.1c-0.4,0.6-0.6,1.2-0.7,1.7c-0.1,0.4,0,0.7,0.3,0.9c0.1,0.1,0.3,0.1,0.5,0.1
		s0.4-0.1,0.6-0.4c0.4-0.3,0.7-0.8,1.2-1.6c0.3-0.5,0.6-1,0.7-1.4c0.1-0.3,0.1-0.6,0-0.8c0-0.1-0.1-0.2-0.3-0.3
		c-0.2-0.1-0.3-0.1-0.5-0.1c-0.3,0.1-0.6,0.3-0.9,0.7C167.4,42.3,167.1,42.7,166.9,43.1z"/>
	<path d="M173.2,47.2c0.4-0.5,0.8-0.9,1.2-1.1c0.4-0.2,0.8-0.4,1.2-0.3c0.3,0,0.5,0.1,0.8,0.2c0.3,0.3,0.5,0.7,0.5,1.2
		c0,0.7-0.3,1.4-0.8,2.1c-0.4,0.5-0.8,0.9-1.2,1.1c-0.4,0.2-0.8,0.4-1.1,0.3c-0.3,0-0.6-0.1-0.8-0.3c-0.4-0.3-0.6-0.8-0.5-1.5
		C172.5,48.4,172.8,47.8,173.2,47.2z M173.8,47.8c-0.5,0.6-0.8,1.1-0.9,1.6c-0.1,0.4-0.1,0.7,0.2,0.9c0.1,0.1,0.3,0.1,0.5,0.1
		c0.2,0,0.4-0.1,0.7-0.3c0.4-0.3,0.8-0.8,1.3-1.4c0.4-0.5,0.6-0.9,0.8-1.4c0.1-0.3,0.1-0.6,0.1-0.7c0-0.1-0.1-0.3-0.2-0.3
		c-0.1-0.1-0.3-0.1-0.5-0.1c-0.3,0.1-0.6,0.3-1,0.6C174.4,47.1,174.1,47.4,173.8,47.8z"/>
	<path d="M178.8,52.6l-0.4,0.4l-0.6-0.5l-0.9,1.1l-0.5-0.4l0.9-1.1l-1.8-1.5l0.3-0.4l4.3-1.1l0.3,0.3l-2.3,2.7L178.8,52.6z
		 M177.7,51.7l1.7-2.1l-3.2,0.8L177.7,51.7z"/>
	<path d="M179.7,52.5c0.4-0.5,0.9-0.8,1.3-1c0.4-0.2,0.9-0.3,1.2-0.2c0.3,0,0.5,0.1,0.7,0.3c0.3,0.3,0.4,0.7,0.4,1.2
		c-0.1,0.7-0.4,1.3-1,2c-0.4,0.5-0.9,0.8-1.3,1c-0.4,0.2-0.8,0.3-1.2,0.2c-0.3,0-0.6-0.2-0.8-0.3c-0.4-0.4-0.5-0.9-0.3-1.6
		C178.9,53.6,179.2,53,179.7,52.5z M180.2,53.1c-0.5,0.6-0.9,1.1-1,1.5c-0.2,0.4-0.1,0.7,0.1,0.9c0.1,0.1,0.3,0.2,0.5,0.2
		c0.2,0,0.4-0.1,0.7-0.2c0.4-0.3,0.9-0.7,1.5-1.3c0.4-0.5,0.7-0.9,0.9-1.3c0.1-0.3,0.2-0.5,0.2-0.7c0-0.1-0.1-0.3-0.2-0.4
		c-0.1-0.1-0.3-0.2-0.5-0.1c-0.3,0-0.6,0.2-1,0.5C180.9,52.4,180.6,52.8,180.2,53.1z"/>
	<path d="M185.7,58.3c0.5-0.4,0.9-0.7,1.4-0.9c0.5-0.2,0.9-0.2,1.2-0.1c0.3,0.1,0.5,0.2,0.7,0.4c0.3,0.3,0.4,0.7,0.3,1.3
		c-0.1,0.7-0.5,1.3-1.2,1.9c-0.5,0.4-0.9,0.7-1.4,0.9c-0.5,0.2-0.8,0.2-1.2,0.1c-0.3-0.1-0.6-0.2-0.8-0.4c-0.3-0.4-0.4-0.9-0.2-1.6
		C184.8,59.4,185.2,58.8,185.7,58.3z M186.2,59c-0.6,0.5-1,1-1.2,1.4c-0.2,0.4-0.2,0.7,0,0.9c0.1,0.1,0.2,0.2,0.4,0.2
		c0.2,0,0.4,0,0.7-0.2c0.4-0.2,1-0.6,1.6-1.2c0.5-0.4,0.8-0.8,1-1.2c0.2-0.3,0.2-0.5,0.2-0.7c0-0.1-0.1-0.3-0.2-0.4
		c-0.1-0.1-0.3-0.2-0.5-0.2c-0.3,0-0.6,0.1-1,0.4S186.5,58.7,186.2,59z"/>
	<path d="M192.8,62.2l-0.7,0.2l-1-1.3l-0.8,0.2c0.4,0.6,0.5,1.2,0.5,1.8c-0.1,0.5-0.3,0.9-0.7,1.2c-0.2,0.2-0.5,0.3-0.7,0.4
		c-0.3,0.1-0.5,0.1-0.8,0.1c-0.2,0-0.5-0.1-0.7-0.2c-0.3-0.1-0.6-0.3-0.8-0.6c-0.2-0.3-0.3-0.5-0.3-0.7c0-0.2,0-0.3,0.1-0.4
		c0.1,0,0.1-0.1,0.2-0.1c0.1,0,0.2,0.1,0.2,0.1c0,0.1,0.1,0.1,0.1,0.2c0,0.1,0,0.2,0,0.3c0,0.2,0.1,0.4,0.2,0.6
		c0.2,0.2,0.5,0.4,0.8,0.4c0.3,0,0.6-0.1,0.9-0.3c0.3-0.2,0.4-0.5,0.5-0.8c0.1-0.3,0.1-0.7,0-1.1c-0.1-0.3-0.3-0.7-0.6-1.1l2.3-0.5
		L192.8,62.2z"/>
	<path d="M191.2,64.7c0.5-0.4,1-0.6,1.5-0.7c0.5-0.1,0.9-0.1,1.3,0c0.3,0.1,0.5,0.2,0.7,0.4c0.3,0.3,0.3,0.8,0.2,1.3
		c-0.2,0.7-0.6,1.2-1.4,1.8c-0.5,0.4-1,0.6-1.5,0.7c-0.5,0.1-0.9,0.1-1.2,0c-0.3-0.1-0.6-0.3-0.7-0.5c-0.3-0.4-0.3-0.9,0-1.6
		C190.2,65.6,190.6,65.1,191.2,64.7z M191.6,65.4c-0.6,0.5-1,0.9-1.3,1.3c-0.2,0.4-0.3,0.7-0.1,0.9c0.1,0.1,0.2,0.2,0.4,0.2
		c0.2,0,0.4,0,0.7-0.1c0.4-0.2,1-0.5,1.7-1c0.5-0.4,0.9-0.7,1.1-1.1c0.2-0.3,0.3-0.5,0.3-0.7c0-0.1,0-0.3-0.1-0.4
		c-0.1-0.1-0.3-0.2-0.5-0.2c-0.3,0-0.7,0.1-1.1,0.3C192.3,64.9,191.9,65.1,191.6,65.4z"/>
	<path d="M194.9,69.8c0.5-0.3,1-0.5,1.5-0.6c0.5-0.1,0.9-0.1,1.3,0.1c0.3,0.1,0.5,0.3,0.6,0.5c0.2,0.4,0.3,0.8,0.1,1.3
		c-0.2,0.6-0.7,1.2-1.5,1.7c-0.5,0.3-1,0.6-1.5,0.6c-0.5,0.1-0.9,0.1-1.2-0.1c-0.3-0.1-0.6-0.3-0.7-0.5c-0.3-0.4-0.3-1,0.1-1.6
		C193.8,70.6,194.2,70.2,194.9,69.8z M195.2,70.5c-0.6,0.4-1.1,0.8-1.4,1.2c-0.3,0.3-0.3,0.6-0.1,0.9c0.1,0.1,0.2,0.2,0.4,0.3
		c0.2,0.1,0.4,0,0.7-0.1c0.5-0.1,1-0.4,1.7-0.9c0.5-0.3,0.9-0.7,1.2-1c0.2-0.2,0.3-0.5,0.3-0.7c0-0.1,0-0.3-0.1-0.4
		c-0.1-0.2-0.3-0.2-0.5-0.3c-0.3,0-0.7,0-1.1,0.2C196,70,195.6,70.3,195.2,70.5z"/>
	<path d="M201.3,74.8l-0.1,0.1c-0.2-0.3-0.4-0.5-0.6-0.6c-0.2-0.1-0.5-0.2-0.8-0.3c-0.3-0.1-0.6-0.1-0.9-0.1c-0.3,0-0.6,0.1-1,0.2
		c0.4,0.2,0.7,0.5,0.9,0.8c0.2,0.3,0.2,0.7,0.1,1.1c-0.1,0.4-0.4,0.7-0.8,0.9c-0.4,0.2-0.8,0.3-1.3,0.3c-0.6-0.1-1-0.3-1.3-0.8
		c-0.2-0.3-0.2-0.7-0.2-1c0.2-0.7,0.6-1.2,1.2-1.6c0.4-0.2,0.9-0.4,1.4-0.4s1,0,1.4,0.1c0.5,0.1,0.9,0.3,1.1,0.6
		c0.3,0.2,0.5,0.5,0.6,0.7L201.3,74.8z M197.6,74.1c-0.3,0.1-0.6,0.3-0.8,0.4c-0.2,0.1-0.4,0.3-0.7,0.5c-0.2,0.2-0.4,0.5-0.4,0.7
		c0,0.2,0,0.4,0.1,0.5c0.1,0.2,0.3,0.3,0.6,0.4c0.3,0,0.6,0,1-0.2c0.4-0.2,0.7-0.5,0.9-0.8s0.2-0.6,0-0.9c-0.1-0.1-0.1-0.2-0.2-0.3
		C198,74.3,197.8,74.2,197.6,74.1z"/>
	<path d="M199.2,77c0.6-0.3,1.1-0.5,1.6-0.5c0.5,0,0.9,0,1.2,0.2c0.3,0.1,0.5,0.3,0.6,0.5c0.2,0.4,0.2,0.8,0,1.3
		c-0.3,0.6-0.8,1.1-1.6,1.5c-0.6,0.3-1.1,0.5-1.6,0.5c-0.5,0-0.9,0-1.2-0.2c-0.3-0.2-0.5-0.4-0.6-0.6c-0.2-0.5-0.2-1,0.2-1.6
		C198.1,77.7,198.5,77.3,199.2,77z M199.5,77.7c-0.7,0.3-1.2,0.7-1.5,1.1c-0.3,0.3-0.4,0.6-0.2,0.9c0.1,0.1,0.2,0.2,0.4,0.3
		c0.2,0.1,0.4,0.1,0.7,0c0.5-0.1,1.1-0.3,1.8-0.7c0.6-0.3,1-0.6,1.3-0.9c0.2-0.2,0.4-0.4,0.4-0.6c0-0.1,0-0.3-0.1-0.4
		c-0.1-0.2-0.2-0.3-0.4-0.3c-0.3-0.1-0.7,0-1.1,0.1C200.3,77.3,199.9,77.5,199.5,77.7z"/>
	<path d="M202.9,84.5c0.6-0.2,1.1-0.3,1.6-0.3c0.5,0,0.9,0.1,1.2,0.3c0.3,0.2,0.4,0.4,0.5,0.6c0.2,0.4,0.1,0.8-0.2,1.3
		c-0.3,0.6-0.9,1-1.8,1.4c-0.6,0.2-1.1,0.4-1.6,0.4c-0.5,0-0.9-0.1-1.2-0.3c-0.3-0.2-0.5-0.4-0.6-0.6c-0.2-0.5-0.1-1,0.4-1.6
		C201.7,85.1,202.2,84.8,202.9,84.5z M203.1,85.3c-0.7,0.3-1.2,0.6-1.6,1c-0.3,0.3-0.4,0.6-0.3,0.9c0.1,0.1,0.2,0.2,0.4,0.3
		c0.2,0.1,0.4,0.1,0.7,0.1c0.5-0.1,1.1-0.2,1.9-0.6c0.6-0.2,1-0.5,1.4-0.8c0.3-0.2,0.4-0.4,0.5-0.6c0-0.1,0-0.3,0-0.4
		c-0.1-0.2-0.2-0.3-0.4-0.4c-0.3-0.1-0.7-0.1-1.1,0C203.9,85,203.5,85.1,203.1,85.3z"/>
	<path d="M207.2,88l1,2.8l-0.1,0.1l-5.7,0.1l-0.1-0.4l5.2-0.1l-0.5-1.4c-0.1-0.3-0.2-0.5-0.3-0.6c-0.2-0.2-0.4-0.3-0.7-0.3l0-0.1
		L207.2,88z"/>
	<path d="M205.8,92.3c0.6-0.2,1.1-0.2,1.6-0.2s0.9,0.2,1.2,0.4c0.2,0.2,0.4,0.4,0.5,0.6c0.1,0.4,0,0.8-0.3,1.3c-0.4,0.6-1,1-1.9,1.2
		c-0.6,0.2-1.2,0.2-1.6,0.2s-0.9-0.2-1.1-0.4c-0.3-0.2-0.4-0.4-0.5-0.7c-0.2-0.5,0-1,0.5-1.5C204.5,92.9,205.1,92.5,205.8,92.3z
		 M205.9,93.1c-0.7,0.2-1.3,0.5-1.7,0.8c-0.3,0.3-0.5,0.5-0.4,0.8c0,0.1,0.1,0.3,0.3,0.4c0.2,0.1,0.4,0.2,0.7,0.2
		c0.5,0,1.1-0.1,1.9-0.4c0.6-0.2,1.1-0.4,1.4-0.6c0.3-0.2,0.4-0.4,0.5-0.5c0.1-0.1,0.1-0.3,0-0.4c-0.1-0.2-0.2-0.3-0.4-0.4
		c-0.3-0.1-0.6-0.1-1.1-0.1C206.8,92.9,206.4,93,205.9,93.1z"/>
	<path d="M207.5,98.4c0.6-0.1,1.2-0.2,1.6-0.1c0.5,0.1,0.9,0.3,1.1,0.5c0.2,0.2,0.4,0.4,0.4,0.7c0.1,0.4,0,0.8-0.4,1.2
		c-0.4,0.5-1.1,0.9-2,1.1c-0.6,0.1-1.2,0.2-1.6,0.1c-0.5-0.1-0.8-0.2-1.1-0.5c-0.3-0.2-0.4-0.5-0.5-0.7c-0.1-0.5,0.1-1,0.6-1.5
		C206.2,98.8,206.8,98.5,207.5,98.4z M207.6,99.2c-0.7,0.2-1.3,0.4-1.7,0.7c-0.4,0.2-0.5,0.5-0.4,0.8c0,0.1,0.1,0.3,0.3,0.4
		c0.2,0.1,0.4,0.2,0.7,0.2c0.5,0,1.1-0.1,1.9-0.2c0.6-0.1,1.1-0.3,1.5-0.5c0.3-0.2,0.5-0.3,0.6-0.5c0.1-0.1,0.1-0.3,0-0.4
		c0-0.2-0.2-0.3-0.3-0.4c-0.3-0.1-0.6-0.2-1.1-0.2C208.5,99,208,99.1,207.6,99.2z"/>
	<path d="M208.7,103.7c0.3-0.5,0.5-0.8,0.7-1s0.4-0.3,0.6-0.3c0.3-0.1,0.7,0,1,0.2c0.3,0.2,0.5,0.6,0.6,1c0.1,0.4,0,0.8-0.2,1.1
		c-0.2,0.3-0.4,0.5-0.7,0.5c-0.2,0-0.4,0-0.7-0.1c-0.2-0.1-0.5-0.4-0.9-0.8c-0.3,0.5-0.5,0.9-0.7,1.1c-0.2,0.2-0.5,0.4-0.8,0.5
		c-0.4,0.1-0.7,0-1-0.3c-0.3-0.2-0.5-0.6-0.6-1.1c-0.1-0.5,0-0.9,0.3-1.3c0.2-0.3,0.5-0.4,0.8-0.5c0.2,0,0.5,0,0.8,0.1
		C208,103.2,208.3,103.4,208.7,103.7z M208.6,103.9c-0.2-0.2-0.5-0.3-0.7-0.4c-0.2-0.1-0.5-0.1-0.7,0c-0.3,0.1-0.6,0.2-0.8,0.4
		c-0.2,0.2-0.2,0.5-0.2,0.8c0,0.3,0.2,0.5,0.4,0.6c0.2,0.1,0.4,0.2,0.6,0.2c0.2,0,0.4-0.1,0.5-0.2
		C207.9,105,208.2,104.6,208.6,103.9z M209.2,104.3c0.3,0.3,0.6,0.4,0.8,0.5c0.2,0.1,0.4,0.1,0.6,0c0.3,0,0.5-0.2,0.6-0.4
		c0.1-0.2,0.2-0.4,0.1-0.7c0-0.3-0.2-0.5-0.4-0.6c-0.2-0.1-0.4-0.2-0.6-0.2c-0.1,0-0.3,0.1-0.4,0.2c-0.1,0.1-0.2,0.2-0.3,0.4
		L209.2,104.3z"/>
	<path d="M209.1,106.6c0.6-0.1,1.2-0.1,1.6,0.1c0.5,0.1,0.8,0.3,1.1,0.6c0.2,0.2,0.3,0.5,0.4,0.7c0.1,0.4-0.1,0.8-0.5,1.2
		c-0.5,0.5-1.2,0.8-2.1,0.9c-0.6,0.1-1.2,0.1-1.6-0.1c-0.5-0.1-0.8-0.3-1-0.6c-0.2-0.3-0.4-0.5-0.4-0.8c-0.1-0.5,0.2-1,0.7-1.4
		C207.8,106.9,208.4,106.7,209.1,106.6z M209.1,107.4c-0.7,0.1-1.3,0.3-1.8,0.5c-0.4,0.2-0.5,0.5-0.5,0.8c0,0.1,0.1,0.3,0.3,0.4
		c0.1,0.1,0.4,0.2,0.7,0.3c0.5,0.1,1.1,0,2-0.1c0.6-0.1,1.1-0.2,1.5-0.4c0.3-0.1,0.5-0.3,0.6-0.5c0.1-0.1,0.1-0.3,0.1-0.4
		c0-0.2-0.1-0.3-0.3-0.5c-0.2-0.2-0.6-0.2-1.1-0.3S209.6,107.3,209.1,107.4z"/>
	<path d="M210,114.9c0.6,0,1.2,0.1,1.6,0.2c0.5,0.2,0.8,0.4,1,0.7c0.2,0.2,0.3,0.5,0.3,0.7c0,0.4-0.2,0.8-0.6,1.2
		c-0.5,0.4-1.2,0.7-2.1,0.7c-0.6,0-1.2,0-1.6-0.2c-0.4-0.2-0.8-0.4-1-0.7c-0.2-0.3-0.3-0.5-0.3-0.8c0-0.5,0.3-1,0.9-1.3
		C208.6,115.1,209.2,114.9,210,114.9z M209.9,115.7c-0.8,0-1.4,0.1-1.8,0.3c-0.4,0.2-0.6,0.4-0.6,0.7c0,0.1,0.1,0.3,0.2,0.4
		c0.1,0.2,0.4,0.3,0.7,0.3c0.5,0.1,1.1,0.1,2,0.1c0.6,0,1.1-0.1,1.6-0.2c0.3-0.1,0.5-0.2,0.6-0.4c0.1-0.1,0.1-0.2,0.1-0.4
		c0-0.2-0.1-0.3-0.3-0.5c-0.2-0.2-0.6-0.3-1.1-0.4C210.8,115.7,210.4,115.7,209.9,115.7z"/>
	<path d="M207.3,119.2l0.1,0c0,0.3,0.1,0.7,0.2,1c0.2,0.3,0.4,0.6,0.8,0.9c0.4,0.3,0.8,0.5,1.3,0.6c-0.3-0.4-0.4-0.8-0.4-1.1
		c0-0.4,0.2-0.7,0.5-1c0.3-0.3,0.7-0.4,1.2-0.4c0.5,0,0.9,0.1,1.3,0.4c0.5,0.3,0.7,0.8,0.7,1.3c0,0.4-0.2,0.8-0.6,1.1
		c-0.5,0.4-1,0.6-1.7,0.6c-0.6,0-1.2-0.2-1.7-0.5s-1-0.7-1.3-1.3c-0.3-0.4-0.4-0.9-0.4-1.4L207.3,119.2z M210.1,121.7
		c0.3,0.1,0.6,0.1,0.8,0.1c0.3,0,0.5,0,0.8-0.1c0.3-0.1,0.5-0.2,0.7-0.4c0.2-0.2,0.2-0.3,0.2-0.6c0-0.2-0.1-0.5-0.3-0.6
		c-0.2-0.2-0.5-0.3-1-0.3c-0.6,0-1,0.1-1.3,0.3c-0.2,0.2-0.4,0.4-0.4,0.6c0,0.1,0,0.3,0.1,0.4C209.9,121.4,210,121.6,210.1,121.7z"
		/>
	<path d="M210,123.3c0.6,0,1.2,0.2,1.6,0.4c0.4,0.2,0.8,0.5,1,0.8c0.2,0.3,0.2,0.5,0.2,0.8c0,0.4-0.3,0.8-0.7,1.1
		c-0.6,0.4-1.3,0.6-2.2,0.5c-0.6,0-1.2-0.2-1.6-0.4c-0.4-0.2-0.7-0.5-0.9-0.8c-0.2-0.3-0.3-0.6-0.3-0.8c0-0.5,0.4-0.9,1-1.2
		C208.7,123.4,209.3,123.2,210,123.3z M209.9,124.1c-0.8,0-1.4,0-1.9,0.2c-0.4,0.1-0.6,0.3-0.6,0.7c0,0.1,0,0.3,0.2,0.5
		c0.1,0.2,0.3,0.3,0.6,0.4c0.5,0.1,1.1,0.2,1.9,0.3c0.6,0,1.1,0,1.6-0.1c0.3-0.1,0.5-0.2,0.7-0.3c0.1-0.1,0.1-0.2,0.2-0.4
		c0-0.2-0.1-0.3-0.2-0.5c-0.2-0.2-0.6-0.4-1-0.5C210.8,124.2,210.4,124.1,209.9,124.1z"/>
	<path d="M211.7,130.5l0.5,1.4l0,0.1l-4.6-0.6c-0.3,0-0.5,0-0.6,0c-0.1,0-0.1,0.1-0.2,0.1c-0.1,0.1-0.1,0.2-0.1,0.5l-0.1,0l0.3-2
		l0.1,0c0,0.3,0,0.4,0,0.5c0,0.1,0.1,0.1,0.1,0.2c0.1,0,0.3,0.1,0.6,0.1l2.9,0.4c0.4,0,0.6,0.1,0.8,0.1c0.1,0,0.2,0,0.2-0.1
		s0.1-0.1,0.1-0.2c0-0.1,0-0.2-0.1-0.4L211.7,130.5z"/>
	<path d="M209.1,133.7c0.6,0.1,1.1,0.3,1.5,0.6c0.4,0.3,0.7,0.6,0.9,0.9c0.1,0.3,0.2,0.5,0.1,0.8c-0.1,0.4-0.3,0.7-0.8,1
		c-0.6,0.3-1.3,0.4-2.2,0.2c-0.6-0.1-1.1-0.3-1.5-0.5s-0.7-0.5-0.8-0.9c-0.1-0.3-0.2-0.6-0.2-0.9c0.1-0.5,0.5-0.9,1.1-1.1
		C207.7,133.6,208.3,133.6,209.1,133.7z M208.8,134.5c-0.7-0.1-1.4-0.1-1.9,0c-0.4,0.1-0.7,0.3-0.7,0.6c0,0.1,0,0.3,0.1,0.5
		c0.1,0.2,0.3,0.3,0.6,0.5c0.4,0.2,1.1,0.4,1.9,0.5c0.6,0.1,1.1,0.1,1.6,0.1c0.3,0,0.6-0.1,0.7-0.3c0.1-0.1,0.2-0.2,0.2-0.4
		c0-0.2,0-0.4-0.2-0.5c-0.2-0.2-0.5-0.4-1-0.6C209.7,134.7,209.3,134.5,208.8,134.5z"/>
	<path d="M208.3,137.8c0.6,0.1,1.1,0.3,1.5,0.6s0.7,0.6,0.8,1c0.1,0.3,0.2,0.5,0.1,0.8c-0.1,0.4-0.4,0.7-0.9,1
		c-0.6,0.3-1.4,0.3-2.2,0.1c-0.6-0.1-1.1-0.3-1.5-0.6c-0.4-0.3-0.7-0.6-0.8-0.9c-0.1-0.3-0.2-0.6-0.1-0.9c0.1-0.5,0.5-0.9,1.2-1.1
		C207,137.7,207.6,137.7,208.3,137.8z M208.1,138.6c-0.7-0.2-1.4-0.2-1.9-0.1c-0.4,0.1-0.7,0.2-0.7,0.5c0,0.1,0,0.3,0.1,0.5
		c0.1,0.2,0.3,0.3,0.6,0.5c0.4,0.2,1,0.4,1.9,0.6c0.6,0.1,1.1,0.2,1.6,0.1c0.3,0,0.6-0.1,0.7-0.2c0.1-0.1,0.2-0.2,0.2-0.4
		c0-0.2,0-0.4-0.1-0.5c-0.2-0.2-0.5-0.4-0.9-0.6C209,138.8,208.5,138.7,208.1,138.6z"/>
	<path d="M208.2,147.3l0.2,1.5l0,0.1l-4.4-1.4c-0.3-0.1-0.5-0.1-0.6-0.1c-0.1,0-0.2,0-0.2,0.1c-0.1,0.1-0.1,0.2-0.2,0.4l-0.1,0
		l0.6-2l0.1,0c-0.1,0.2-0.1,0.4-0.1,0.5c0,0.1,0,0.1,0.1,0.2c0.1,0,0.2,0.1,0.5,0.2l2.8,0.9c0.4,0.1,0.6,0.2,0.7,0.2
		c0.1,0,0.2,0,0.2,0c0.1,0,0.1-0.1,0.1-0.2c0-0.1,0-0.2,0-0.4L208.2,147.3z"/>
	<path d="M207,151l0.1,1.5l0,0.1l-4.3-1.6c-0.3-0.1-0.5-0.2-0.5-0.2c-0.1,0-0.2,0-0.2,0.1c-0.1,0.1-0.1,0.2-0.2,0.4l-0.1-0.1
		l0.7-1.9l0.1,0.1c-0.1,0.2-0.1,0.4-0.1,0.5c0,0.1,0,0.2,0.1,0.2s0.2,0.1,0.5,0.2l2.8,1c0.4,0.1,0.6,0.2,0.7,0.2c0.1,0,0.2,0,0.2,0
		s0.1-0.1,0.1-0.1c0-0.1,0-0.2,0-0.4L207,151z"/>
	<path d="M203.6,153.6c0.6,0.2,1,0.5,1.4,0.9c0.3,0.3,0.6,0.7,0.6,1.1c0.1,0.3,0,0.6-0.1,0.8c-0.2,0.4-0.5,0.6-1,0.8
		c-0.7,0.2-1.4,0.1-2.2-0.3c-0.6-0.2-1-0.5-1.4-0.9c-0.3-0.3-0.5-0.7-0.6-1c-0.1-0.3-0.1-0.6,0-0.9c0.2-0.5,0.7-0.8,1.4-0.8
		C202.3,153.2,203,153.3,203.6,153.6z M203.2,154.3c-0.7-0.3-1.3-0.4-1.8-0.5c-0.4,0-0.7,0.1-0.8,0.4c-0.1,0.1-0.1,0.3,0,0.5
		s0.2,0.4,0.5,0.6c0.4,0.3,1,0.6,1.7,0.9c0.6,0.2,1.1,0.4,1.5,0.4c0.3,0,0.6,0,0.8-0.1c0.1-0.1,0.2-0.2,0.3-0.3
		c0.1-0.2,0.1-0.3,0-0.5c-0.1-0.3-0.4-0.5-0.8-0.8C204.1,154.7,203.7,154.4,203.2,154.3z"/>
	<path d="M202.8,160.9l0,1.5l-0.1,0.1l-4.1-2.1c-0.3-0.1-0.4-0.2-0.5-0.2c-0.1,0-0.2,0-0.2,0.1c-0.1,0.1-0.2,0.2-0.3,0.4l-0.1-0.1
		l0.9-1.8l0.1,0.1c-0.1,0.2-0.2,0.4-0.2,0.5c0,0.1,0,0.2,0.1,0.2c0,0.1,0.2,0.2,0.5,0.3l2.6,1.3c0.4,0.2,0.6,0.3,0.7,0.3
		c0.1,0,0.2,0,0.2,0c0.1,0,0.1-0.1,0.1-0.1c0-0.1,0.1-0.2,0.1-0.4L202.8,160.9z"/>
	<path d="M196,165.2l-0.7-0.9l1.6-2.8l0.1,0.1c0.3,1.3,0.6,2.2,0.8,2.8c0.3,0.6,0.6,1,1,1.2c0.3,0.2,0.6,0.2,0.9,0.1
		c0.3-0.1,0.5-0.2,0.7-0.5c0.1-0.2,0.2-0.5,0.2-0.7c0-0.3-0.2-0.5-0.4-0.8l0.1-0.1c0.4,0.3,0.6,0.6,0.7,1c0.1,0.4,0,0.7-0.2,1.1
		c-0.2,0.4-0.5,0.6-0.9,0.8c-0.4,0.1-0.8,0.1-1.1-0.1c-0.2-0.1-0.4-0.3-0.6-0.6c-0.3-0.4-0.5-0.9-0.7-1.5c-0.3-0.9-0.5-1.5-0.5-1.7
		l-0.7,1.2c-0.1,0.3-0.2,0.4-0.3,0.5c0,0.1-0.1,0.2,0,0.3c0,0.1,0.1,0.2,0.1,0.4L196,165.2z"/>
	<path d="M197.1,166.6c0.5,0.3,0.9,0.7,1.2,1.1c0.3,0.4,0.4,0.8,0.4,1.2c0,0.3,0,0.6-0.2,0.8c-0.2,0.4-0.6,0.6-1.1,0.6
		c-0.7,0.1-1.4-0.1-2.2-0.6c-0.5-0.3-0.9-0.7-1.2-1.1c-0.3-0.4-0.4-0.8-0.4-1.1c0-0.3,0-0.6,0.2-0.9c0.3-0.4,0.8-0.6,1.5-0.6
		C195.9,166,196.5,166.3,197.1,166.6z M196.6,167.3c-0.6-0.4-1.2-0.7-1.7-0.8c-0.4-0.1-0.7,0-0.9,0.3c-0.1,0.1-0.1,0.3-0.1,0.5
		c0,0.2,0.1,0.4,0.4,0.6c0.3,0.4,0.8,0.8,1.6,1.2c0.5,0.3,1,0.6,1.4,0.7c0.3,0.1,0.6,0.1,0.8,0c0.1,0,0.2-0.1,0.3-0.3
		c0.1-0.2,0.1-0.3,0.1-0.5c-0.1-0.3-0.3-0.6-0.7-0.9S197,167.5,196.6,167.3z"/>
	<path d="M193.7,175.5l-0.3,1.4l-0.1,0.1l-3.7-2.8c-0.2-0.2-0.4-0.3-0.5-0.3s-0.2,0-0.2,0c-0.1,0-0.2,0.2-0.4,0.3l-0.1-0.1l1.3-1.6
		l0.1,0.1c-0.2,0.2-0.2,0.4-0.3,0.4c0,0.1,0,0.2,0,0.2s0.2,0.2,0.4,0.4l2.3,1.8c0.3,0.2,0.5,0.4,0.6,0.4c0.1,0,0.2,0,0.2,0
		s0.1,0,0.2-0.1c0.1-0.1,0.1-0.2,0.2-0.4L193.7,175.5z"/>
	<path d="M191.1,178.1c0.2,0.4,0.3,0.7,0.3,1c0,0.3-0.1,0.6-0.3,0.9c-0.3,0.3-0.6,0.5-1,0.5c-0.3,0-0.5-0.1-0.7-0.2
		c-0.3-0.3-0.5-0.7-0.5-1.4c-0.3,0.2-0.6,0.2-0.9,0.2c-0.3,0-0.6-0.1-0.8-0.4c-0.4-0.3-0.6-0.7-0.6-1.1c-0.1-0.6,0.1-1.2,0.6-1.7
		c0.2-0.3,0.4-0.4,0.6-0.5c0.2,0,0.3,0,0.4,0c0.1,0.1,0.1,0.1,0.1,0.2c0,0.1,0,0.2-0.1,0.2c0,0.1-0.1,0.1-0.2,0.1
		c0,0-0.1,0.1-0.3,0.1c-0.2,0.1-0.3,0.1-0.3,0.2c-0.1,0.1-0.2,0.1-0.2,0.2c-0.2,0.2-0.2,0.5-0.2,0.8s0.2,0.5,0.4,0.7
		c0.2,0.1,0.4,0.2,0.6,0.3c0.2,0,0.3,0.1,0.4,0c0.2,0,0.3-0.1,0.5-0.2s0.4-0.2,0.5-0.4l0.1-0.1l0.1,0.1c-0.1,0.2-0.2,0.4-0.2,0.6
		c0,0.2,0,0.5,0,0.6c0.1,0.2,0.2,0.4,0.4,0.5c0.2,0.2,0.4,0.3,0.7,0.2s0.4-0.1,0.6-0.3c0.3-0.3,0.3-0.7,0.2-1.2L191.1,178.1z"/>
	<path d="M187.1,180.1c0.5,0.4,0.8,0.9,1,1.3c0.2,0.4,0.3,0.9,0.2,1.2c0,0.3-0.1,0.5-0.3,0.7c-0.3,0.3-0.7,0.4-1.2,0.4
		c-0.7-0.1-1.3-0.4-2-1c-0.5-0.4-0.8-0.9-1-1.3c-0.2-0.4-0.3-0.8-0.2-1.2c0-0.3,0.2-0.6,0.3-0.8c0.4-0.4,0.9-0.5,1.6-0.3
		C186,179.3,186.6,179.6,187.1,180.1z M186.5,180.6c-0.6-0.5-1.1-0.9-1.5-1.1c-0.4-0.2-0.7-0.1-0.9,0.1c-0.1,0.1-0.2,0.3-0.2,0.5
		c0,0.2,0.1,0.4,0.2,0.7c0.3,0.4,0.7,0.9,1.3,1.5c0.5,0.4,0.9,0.7,1.3,0.9c0.3,0.1,0.5,0.2,0.7,0.2c0.1,0,0.3-0.1,0.4-0.2
		c0.1-0.1,0.2-0.3,0.2-0.5c0-0.3-0.2-0.6-0.5-1C187.1,181.3,186.8,180.9,186.5,180.6z"/>
	<path d="M183.8,186.7l-0.5,1.4l-0.1,0.1l-3.1-3.4c-0.2-0.2-0.3-0.4-0.4-0.4c-0.1,0-0.1,0-0.2,0c-0.1,0-0.2,0.1-0.4,0.3l-0.1-0.1
		l1.5-1.4l0.1,0.1c-0.2,0.2-0.3,0.3-0.3,0.4c0,0.1,0,0.2,0,0.2c0,0.1,0.1,0.2,0.4,0.5l2,2.2c0.3,0.3,0.5,0.5,0.6,0.5
		c0.1,0.1,0.1,0.1,0.2,0.1c0.1,0,0.1,0,0.2-0.1c0.1-0.1,0.1-0.2,0.2-0.4L183.8,186.7z"/>
	<path d="M176.5,189.2l-0.4-0.4l0.6-0.5l-0.9-1.1l0.5-0.4l0.9,1.1l1.8-1.5l0.3,0.4l0.4,4.4l-0.3,0.3l-2.3-2.7L176.5,189.2z
		 M177.6,188.3l1.8,2.1l-0.3-3.3L177.6,188.3z"/>
	<path d="M176.5,190.2c0.4,0.5,0.6,1,0.8,1.4c0.1,0.5,0.1,0.9,0,1.3c-0.1,0.3-0.2,0.5-0.4,0.7c-0.3,0.3-0.8,0.3-1.3,0.2
		c-0.7-0.2-1.3-0.6-1.8-1.3c-0.4-0.5-0.6-1-0.8-1.4s-0.1-0.9,0-1.2c0.1-0.3,0.3-0.6,0.5-0.7c0.4-0.3,0.9-0.3,1.6-0.1
		C175.5,189.2,176,189.6,176.5,190.2z M175.8,190.6c-0.5-0.6-0.9-1-1.3-1.3c-0.4-0.2-0.7-0.2-0.9-0.1c-0.1,0.1-0.2,0.2-0.2,0.4
		c0,0.2,0,0.4,0.1,0.7c0.2,0.4,0.5,1,1,1.7c0.4,0.5,0.8,0.9,1.1,1.1c0.3,0.2,0.5,0.3,0.7,0.3c0.1,0,0.3,0,0.4-0.1
		c0.1-0.1,0.2-0.3,0.2-0.5c0-0.3-0.1-0.7-0.3-1.1C176.4,191.3,176.1,190.9,175.8,190.6z"/>
	<path d="M170.4,197.3l-0.8,1.3l-0.1,0.1l-2.5-3.9c-0.2-0.3-0.3-0.4-0.3-0.5s-0.1-0.1-0.2-0.1c-0.1,0-0.2,0.1-0.5,0.2l-0.1-0.1
		l1.7-1.1l0.1,0.1c-0.2,0.1-0.3,0.3-0.4,0.3s-0.1,0.1,0,0.2c0,0.1,0.1,0.2,0.3,0.5l1.6,2.5c0.2,0.3,0.4,0.5,0.4,0.6
		c0.1,0.1,0.1,0.1,0.2,0.1c0.1,0,0.1,0,0.2,0c0.1-0.1,0.2-0.2,0.3-0.3L170.4,197.3z"/>
	<path d="M164.7,201.4l-0.1-0.8l1.4-0.8L166,199c-0.7,0.3-1.3,0.3-1.9,0.2c-0.5-0.1-0.9-0.4-1.1-0.9c-0.1-0.2-0.2-0.5-0.2-0.8
		c0-0.3,0-0.5,0.1-0.8c0.1-0.2,0.2-0.5,0.3-0.7c0.2-0.3,0.4-0.5,0.7-0.7c0.3-0.2,0.5-0.2,0.7-0.2c0.2,0,0.3,0.1,0.4,0.2
		c0,0.1,0,0.1,0,0.2c0,0.1-0.1,0.1-0.2,0.2c-0.1,0-0.1,0.1-0.2,0.1c-0.1,0-0.2,0-0.3,0c-0.2,0-0.5,0-0.6,0.1
		c-0.3,0.2-0.5,0.4-0.5,0.7c-0.1,0.3,0,0.6,0.1,0.9c0.2,0.3,0.4,0.5,0.7,0.6c0.3,0.1,0.7,0.2,1.1,0.1c0.3,0,0.7-0.2,1.1-0.4l0.1,2.4
		L164.7,201.4z"/>
	<path d="M162.6,199.4c0.3,0.6,0.4,1.1,0.5,1.6c0,0.5,0,0.9-0.2,1.2c-0.1,0.3-0.3,0.5-0.5,0.6c-0.4,0.2-0.8,0.2-1.3-0.1
		c-0.6-0.3-1.1-0.8-1.5-1.6c-0.3-0.6-0.5-1.1-0.5-1.6c0-0.5,0-0.9,0.2-1.2c0.2-0.3,0.4-0.5,0.6-0.6c0.5-0.2,1-0.2,1.6,0.2
		C161.8,198.3,162.2,198.8,162.6,199.4z M161.8,199.7c-0.3-0.7-0.7-1.2-1.1-1.5c-0.3-0.3-0.6-0.4-0.9-0.2c-0.1,0.1-0.2,0.2-0.3,0.4
		c-0.1,0.2-0.1,0.4,0,0.7c0.1,0.5,0.3,1.1,0.7,1.8c0.3,0.6,0.6,1,0.9,1.3c0.2,0.2,0.4,0.4,0.6,0.4c0.1,0,0.3,0,0.4-0.1
		c0.2-0.1,0.3-0.2,0.3-0.4c0.1-0.3,0-0.7-0.1-1.1C162.2,200.5,162,200.1,161.8,199.7z"/>
	<path d="M157.2,204.5l-1,1.1l-0.1,0.1l-1.8-4.2c-0.1-0.3-0.2-0.5-0.3-0.5c-0.1-0.1-0.1-0.1-0.2-0.1c-0.1,0-0.2,0-0.5,0.1l-0.1-0.1
		l1.9-0.8l0.1,0.1c-0.2,0.1-0.4,0.2-0.4,0.3s-0.1,0.1-0.1,0.2c0,0.1,0.1,0.3,0.2,0.6l1.2,2.7c0.2,0.4,0.3,0.6,0.3,0.7
		c0.1,0.1,0.1,0.1,0.2,0.1c0.1,0,0.1,0,0.2,0c0.1,0,0.2-0.1,0.3-0.3L157.2,204.5z"/>
	<path d="M150.8,207.7l-0.1-0.1c0.3-0.2,0.6-0.3,0.7-0.5c0.2-0.2,0.3-0.4,0.5-0.7s0.2-0.6,0.3-0.9c0-0.3,0-0.6,0-1
		c-0.3,0.4-0.6,0.6-1,0.8c-0.3,0.1-0.7,0.1-1.1-0.1c-0.4-0.2-0.6-0.5-0.8-0.9c-0.2-0.4-0.2-0.9,0-1.3c0.2-0.5,0.5-0.9,1-1.1
		c0.4-0.1,0.7-0.1,1,0c0.6,0.3,1.1,0.8,1.4,1.5c0.2,0.5,0.2,0.9,0.2,1.4c0,0.5-0.2,0.9-0.4,1.4c-0.2,0.4-0.5,0.8-0.7,1
		c-0.3,0.2-0.5,0.4-0.8,0.5L150.8,207.7z M152.2,204.2c-0.1-0.4-0.2-0.6-0.2-0.8c-0.1-0.2-0.2-0.5-0.4-0.7c-0.2-0.3-0.4-0.4-0.6-0.5
		c-0.2-0.1-0.3-0.1-0.5,0c-0.2,0.1-0.4,0.3-0.5,0.5c-0.1,0.3-0.1,0.6,0.1,1c0.2,0.4,0.4,0.8,0.7,1c0.3,0.3,0.6,0.3,0.9,0.2
		c0.1,0,0.2-0.1,0.3-0.2C151.9,204.5,152.1,204.4,152.2,204.2z"/>
	<path d="M149.1,205.3c0.2,0.6,0.3,1.1,0.2,1.6c0,0.5-0.2,0.9-0.4,1.2c-0.2,0.2-0.4,0.4-0.6,0.5c-0.4,0.1-0.8,0-1.3-0.3
		c-0.6-0.4-1-1-1.2-1.9c-0.2-0.6-0.3-1.1-0.2-1.6c0-0.5,0.2-0.9,0.4-1.1s0.4-0.5,0.7-0.5c0.5-0.2,1,0,1.5,0.5
		C148.6,204,148.9,204.6,149.1,205.3z M148.3,205.4c-0.2-0.7-0.5-1.3-0.8-1.7c-0.3-0.3-0.5-0.5-0.8-0.4c-0.1,0-0.3,0.2-0.4,0.3
		c-0.1,0.2-0.2,0.4-0.1,0.7c0,0.5,0.2,1.1,0.4,1.9c0.2,0.6,0.4,1.1,0.7,1.4c0.2,0.3,0.4,0.4,0.6,0.5c0.1,0.1,0.3,0.1,0.4,0
		c0.2-0.1,0.3-0.2,0.4-0.4c0.1-0.3,0.1-0.6,0.1-1.1C148.6,206.3,148.5,205.8,148.3,205.4z"/>
	<path d="M140.9,209.9l-1.2,0.9l-0.1,0l-1-4.5c-0.1-0.3-0.1-0.5-0.2-0.6s-0.1-0.1-0.2-0.1s-0.3,0-0.5,0l0-0.1l2-0.4l0,0.1
		c-0.3,0.1-0.4,0.1-0.5,0.2s-0.1,0.1-0.1,0.2c0,0.1,0,0.3,0.1,0.6l0.6,2.9c0.1,0.4,0.2,0.6,0.2,0.7c0,0.1,0.1,0.1,0.1,0.2
		c0.1,0,0.1,0,0.2,0c0.1,0,0.2-0.1,0.4-0.2L140.9,209.9z"/>
	<path d="M136.9,211.3l-2.9,0.5l0-0.2l0.9-5.7l0.4-0.1l-0.8,5.1l1.5-0.3c0.3-0.1,0.5-0.1,0.6-0.2c0.2-0.2,0.3-0.4,0.4-0.7l0.1,0
		L136.9,211.3z"/>
	<path d="M132.8,209.2c0.1,0.6,0,1.2-0.1,1.6s-0.3,0.8-0.6,1.1c-0.2,0.2-0.5,0.3-0.7,0.4c-0.4,0.1-0.8-0.1-1.2-0.5
		c-0.5-0.5-0.8-1.2-0.9-2.1c-0.1-0.6-0.1-1.2,0.1-1.6c0.1-0.5,0.3-0.8,0.6-1c0.3-0.2,0.5-0.4,0.8-0.4c0.5-0.1,1,0.2,1.4,0.8
		C132.5,207.8,132.8,208.4,132.8,209.2z M132,209.2c-0.1-0.7-0.3-1.3-0.5-1.8c-0.2-0.4-0.5-0.6-0.8-0.5c-0.1,0-0.3,0.1-0.4,0.2
		c-0.1,0.1-0.2,0.4-0.3,0.7c-0.1,0.5,0,1.1,0.1,2c0.1,0.6,0.2,1.1,0.4,1.5c0.1,0.3,0.3,0.5,0.5,0.6c0.1,0.1,0.3,0.1,0.4,0.1
		c0.2,0,0.3-0.1,0.5-0.3c0.2-0.2,0.3-0.6,0.3-1.1C132.1,210.1,132.1,209.6,132,209.2z"/>
	<path d="M126,212.1l-1.3,0.7l-0.1,0l-0.2-4.6c0-0.3,0-0.5-0.1-0.6c0-0.1-0.1-0.1-0.2-0.2c-0.1,0-0.2,0-0.5,0l0-0.1l2.1-0.1l0,0.1
		c-0.3,0-0.4,0.1-0.5,0.1c-0.1,0-0.1,0.1-0.1,0.2c0,0.1,0,0.3,0,0.6l0.2,2.9c0,0.4,0,0.7,0.1,0.8c0,0.1,0.1,0.1,0.1,0.2
		c0.1,0,0.1,0.1,0.2,0.1c0.1,0,0.2-0.1,0.4-0.1L126,212.1z"/>
	<path d="M121.1,210.1c0.4,0.4,0.7,0.6,0.8,0.9c0.1,0.2,0.2,0.4,0.2,0.7c0,0.4-0.1,0.7-0.4,0.9c-0.3,0.3-0.6,0.4-1.1,0.4
		c-0.4,0-0.8-0.1-1.1-0.4c-0.3-0.2-0.4-0.5-0.4-0.8c0-0.2,0.1-0.4,0.2-0.6c0.1-0.2,0.4-0.5,0.9-0.8c-0.5-0.4-0.8-0.7-0.9-0.9
		c-0.2-0.3-0.3-0.6-0.3-0.9c0-0.4,0.1-0.7,0.4-1c0.3-0.3,0.7-0.4,1.2-0.4c0.5,0,0.9,0.2,1.2,0.5c0.2,0.3,0.3,0.5,0.3,0.9
		c0,0.2-0.1,0.5-0.2,0.7S121.5,209.8,121.1,210.1z M120.9,209.9c0.2-0.2,0.4-0.4,0.5-0.6c0.1-0.2,0.2-0.5,0.2-0.7
		c0-0.3-0.1-0.6-0.3-0.8c-0.2-0.2-0.4-0.3-0.7-0.3c-0.3,0-0.5,0.1-0.7,0.2c-0.2,0.2-0.3,0.4-0.3,0.6c0,0.2,0.1,0.4,0.2,0.5
		C120,209.1,120.4,209.5,120.9,209.9z M120.5,210.5c-0.3,0.3-0.5,0.5-0.6,0.7c-0.1,0.2-0.1,0.4-0.1,0.6c0,0.3,0.1,0.5,0.2,0.7
		c0.2,0.2,0.4,0.2,0.6,0.2c0.3,0,0.5-0.1,0.7-0.2c0.2-0.2,0.3-0.3,0.3-0.6c0-0.1,0-0.3-0.1-0.4c-0.1-0.1-0.2-0.3-0.3-0.4
		L120.5,210.5z"/>
	<path d="M118.2,210c0,0.6-0.1,1.2-0.3,1.6c-0.2,0.4-0.5,0.8-0.8,1c-0.2,0.2-0.5,0.2-0.8,0.2c-0.4,0-0.8-0.2-1.1-0.7
		c-0.4-0.5-0.6-1.3-0.5-2.2c0-0.6,0.1-1.2,0.3-1.6s0.4-0.7,0.7-0.9s0.6-0.3,0.8-0.3c0.5,0,0.9,0.3,1.3,1
		C118.1,208.7,118.3,209.3,118.2,210z M117.4,209.9c0-0.8,0-1.4-0.2-1.9c-0.1-0.4-0.4-0.6-0.7-0.6c-0.1,0-0.3,0.1-0.5,0.2
		c-0.2,0.1-0.3,0.3-0.4,0.6c-0.1,0.5-0.2,1.1-0.3,1.9c0,0.6,0,1.1,0.1,1.6c0.1,0.3,0.2,0.5,0.3,0.7c0.1,0.1,0.2,0.1,0.4,0.1
		c0.2,0,0.3-0.1,0.5-0.2c0.2-0.2,0.3-0.6,0.4-1C117.4,210.9,117.4,210.4,117.4,209.9z"/>
	<path d="M108.9,211.6l-1.4,0.5l-0.1,0l0.6-4.6c0-0.3,0.1-0.5,0-0.6s-0.1-0.1-0.1-0.2c-0.1-0.1-0.2-0.1-0.5-0.1l0-0.1l2,0.3l0,0.1
		c-0.3,0-0.4,0-0.5,0s-0.1,0.1-0.2,0.1c0,0.1-0.1,0.3-0.1,0.6l-0.4,2.9c-0.1,0.4-0.1,0.6-0.1,0.8c0,0.1,0,0.2,0.1,0.2
		c0,0,0.1,0.1,0.2,0.1c0.1,0,0.2,0,0.4-0.1L108.9,211.6z"/>
	<path d="M106.1,206.2l0,0.1c-0.3-0.1-0.7,0-1,0.1c-0.3,0.1-0.7,0.3-1,0.7c-0.3,0.3-0.6,0.7-0.8,1.2c0.5-0.2,0.9-0.3,1.2-0.2
		c0.4,0.1,0.7,0.3,0.9,0.6c0.2,0.3,0.3,0.8,0.2,1.2c-0.1,0.5-0.3,0.9-0.6,1.2c-0.4,0.4-0.9,0.5-1.4,0.4c-0.4-0.1-0.8-0.3-1-0.8
		c-0.3-0.5-0.4-1.1-0.3-1.8c0.1-0.6,0.4-1.1,0.7-1.6c0.4-0.5,0.9-0.8,1.5-1.1c0.5-0.2,1-0.3,1.5-0.2L106.1,206.2z M103.2,208.5
		c-0.1,0.3-0.2,0.6-0.2,0.8c0,0.3-0.1,0.5,0,0.9c0,0.3,0.1,0.6,0.2,0.8c0.1,0.2,0.3,0.3,0.5,0.3c0.2,0,0.5,0,0.7-0.2
		s0.4-0.5,0.4-0.9c0.1-0.6,0.1-1-0.1-1.4c-0.1-0.3-0.3-0.4-0.6-0.5c-0.1,0-0.3,0-0.4,0C103.5,208.3,103.3,208.4,103.2,208.5z"/>
	<path d="M101.6,208.2c-0.1,0.6-0.3,1.1-0.6,1.5c-0.3,0.4-0.6,0.7-1,0.8c-0.3,0.1-0.5,0.1-0.8,0.1c-0.4-0.1-0.7-0.4-1-0.9
		c-0.3-0.6-0.3-1.4-0.1-2.2c0.1-0.6,0.3-1.1,0.6-1.5c0.3-0.4,0.6-0.7,0.9-0.8c0.3-0.1,0.6-0.2,0.9-0.1c0.5,0.1,0.9,0.5,1.1,1.2
		C101.8,206.8,101.8,207.5,101.6,208.2z M100.9,207.9c0.2-0.7,0.2-1.4,0.1-1.9c-0.1-0.4-0.2-0.7-0.5-0.7c-0.1,0-0.3,0-0.5,0.1
		c-0.2,0.1-0.3,0.3-0.5,0.6c-0.2,0.4-0.4,1-0.6,1.9c-0.1,0.6-0.2,1.1-0.2,1.6c0,0.3,0.1,0.6,0.2,0.7c0.1,0.1,0.2,0.2,0.4,0.2
		c0.2,0,0.4,0,0.5-0.1c0.2-0.2,0.4-0.5,0.6-0.9C100.6,208.8,100.8,208.4,100.9,207.9z"/>
	<path d="M92.7,204.1l0.7-0.9l3.1,0.9l0,0.1c-1.2,0.6-2,1-2.5,1.4c-0.5,0.4-0.9,0.8-1,1.3c-0.1,0.3-0.1,0.6,0.1,0.9
		c0.1,0.3,0.3,0.5,0.6,0.5c0.3,0.1,0.5,0.1,0.8,0c0.2-0.1,0.5-0.3,0.7-0.5l0.1,0c-0.2,0.5-0.5,0.8-0.8,0.9c-0.3,0.2-0.7,0.2-1.1,0.1
		c-0.4-0.1-0.7-0.4-0.9-0.7c-0.2-0.4-0.2-0.7-0.1-1.1c0.1-0.3,0.2-0.5,0.4-0.7c0.3-0.4,0.8-0.7,1.3-1c0.9-0.5,1.4-0.8,1.6-0.9
		l-1.4-0.4c-0.3-0.1-0.5-0.1-0.6-0.1c-0.1,0-0.2,0-0.3,0c-0.1,0-0.2,0.1-0.3,0.2L92.7,204.1z"/>
	<path d="M91.5,205.5c-0.2,0.6-0.5,1.1-0.8,1.4s-0.7,0.6-1,0.7c-0.3,0.1-0.6,0.1-0.8,0c-0.4-0.1-0.7-0.5-0.8-1
		c-0.2-0.6-0.2-1.4,0.1-2.2c0.2-0.6,0.5-1.1,0.8-1.4c0.3-0.4,0.6-0.6,1-0.7c0.3-0.1,0.6-0.1,0.9,0c0.5,0.2,0.8,0.6,0.9,1.3
		C91.8,204.1,91.8,204.8,91.5,205.5z M90.8,205.1c0.3-0.7,0.4-1.3,0.4-1.8c0-0.4-0.2-0.7-0.4-0.8c-0.1,0-0.3,0-0.5,0
		c-0.2,0.1-0.4,0.2-0.6,0.5c-0.3,0.4-0.5,1-0.8,1.8c-0.2,0.6-0.3,1.1-0.3,1.5c0,0.3,0,0.6,0.1,0.7c0.1,0.1,0.2,0.2,0.3,0.3
		c0.2,0.1,0.4,0,0.5-0.1c0.3-0.1,0.5-0.4,0.7-0.9S90.7,205.5,90.8,205.1z"/>
	<path d="M87.6,204.1c-0.2,0.6-0.5,1-0.9,1.4c-0.3,0.3-0.7,0.6-1.1,0.6c-0.3,0.1-0.6,0.1-0.8,0c-0.4-0.2-0.7-0.5-0.8-1
		c-0.2-0.6-0.1-1.4,0.2-2.2c0.2-0.6,0.5-1.1,0.9-1.4c0.3-0.3,0.7-0.6,1-0.6c0.3-0.1,0.6-0.1,0.9,0c0.5,0.2,0.8,0.6,0.9,1.3
		C88,202.7,87.9,203.4,87.6,204.1z M86.9,203.7c0.3-0.7,0.4-1.3,0.4-1.8c0-0.4-0.1-0.7-0.4-0.8c-0.1-0.1-0.3-0.1-0.5,0
		c-0.2,0.1-0.4,0.2-0.6,0.5c-0.3,0.4-0.6,1-0.9,1.7c-0.2,0.6-0.4,1.1-0.4,1.5c0,0.3,0,0.6,0.1,0.7c0.1,0.1,0.2,0.2,0.3,0.3
		c0.2,0.1,0.4,0.1,0.5,0c0.3-0.1,0.5-0.4,0.8-0.8C86.5,204.5,86.7,204.1,86.9,203.7z"/>
	<path d="M77.6,197.6l0.8-0.8l2.9,1.5l-0.1,0.1c-1.2,0.3-2.2,0.6-2.8,1c-0.6,0.3-1,0.7-1.2,1.1c-0.2,0.3-0.2,0.6-0.1,0.9
		c0.1,0.3,0.3,0.5,0.5,0.6c0.2,0.1,0.5,0.2,0.8,0.1c0.3,0,0.5-0.2,0.7-0.4l0.1,0.1c-0.3,0.4-0.6,0.7-1,0.8c-0.4,0.1-0.7,0.1-1.1-0.1
		c-0.4-0.2-0.7-0.5-0.8-0.9c-0.1-0.4-0.1-0.8,0.1-1.1c0.1-0.2,0.3-0.5,0.6-0.6c0.4-0.3,0.9-0.6,1.5-0.8c0.9-0.3,1.5-0.5,1.7-0.6
		l-1.3-0.7c-0.3-0.1-0.4-0.2-0.6-0.3s-0.2,0-0.3,0c-0.1,0-0.2,0.1-0.3,0.1L77.6,197.6z"/>
	<path d="M74.5,200.3l-1.5-0.1l-0.1-0.1l2.3-4c0.2-0.3,0.2-0.4,0.3-0.5c0-0.1,0-0.2-0.1-0.2s-0.2-0.2-0.4-0.3l0.1-0.1l1.8,1
		l-0.1,0.1c-0.2-0.1-0.4-0.2-0.5-0.2s-0.2,0-0.2,0.1c-0.1,0-0.2,0.2-0.3,0.5l-1.5,2.5c-0.2,0.3-0.3,0.6-0.4,0.7c0,0.1,0,0.2,0,0.2
		c0,0.1,0.1,0.1,0.1,0.1c0.1,0,0.2,0.1,0.4,0.1L74.5,200.3z"/>
	<path d="M72.6,196.6c-0.3,0.5-0.7,0.9-1.1,1.2c-0.4,0.3-0.8,0.4-1.2,0.4c-0.3,0-0.6,0-0.8-0.2c-0.4-0.2-0.6-0.6-0.6-1.2
		c-0.1-0.7,0.2-1.4,0.6-2.1c0.3-0.5,0.7-0.9,1.1-1.2c0.4-0.3,0.8-0.4,1.1-0.4c0.3,0,0.6,0,0.9,0.2c0.4,0.3,0.6,0.8,0.6,1.5
		C73.2,195.4,73,196,72.6,196.6z M72,196.1c0.4-0.6,0.7-1.2,0.8-1.7c0.1-0.4,0-0.7-0.2-0.9c-0.1-0.1-0.3-0.1-0.5-0.1
		c-0.2,0-0.4,0.1-0.7,0.4c-0.4,0.3-0.8,0.8-1.2,1.5c-0.3,0.5-0.6,1-0.7,1.4c-0.1,0.3-0.1,0.6,0,0.8c0,0.1,0.1,0.2,0.3,0.3
		c0.2,0.1,0.3,0.1,0.5,0.1c0.3-0.1,0.6-0.3,0.9-0.7C71.4,196.9,71.7,196.5,72,196.1z"/>
	<path d="M64,188.4l1-0.6l2.5,2l-0.1,0.1c-1.3,0.1-2.2,0.2-2.9,0.4c-0.6,0.2-1.1,0.5-1.4,0.8c-0.2,0.3-0.3,0.6-0.3,0.9
		c0,0.3,0.2,0.6,0.4,0.7c0.2,0.2,0.4,0.3,0.7,0.3c0.3,0,0.5-0.1,0.8-0.2l0.1,0.1c-0.4,0.3-0.7,0.5-1.1,0.6s-0.7-0.1-1.1-0.3
		c-0.3-0.3-0.6-0.6-0.6-1c-0.1-0.4,0-0.8,0.3-1.1c0.2-0.2,0.4-0.4,0.7-0.5c0.4-0.2,1-0.4,1.6-0.5c1-0.2,1.6-0.2,1.8-0.3l-1.1-0.9
		c-0.2-0.2-0.4-0.3-0.5-0.4c-0.1-0.1-0.2-0.1-0.3-0.1c-0.1,0-0.2,0-0.4,0.1L64,188.4z"/>
	<path d="M60.9,185.7l1-0.5l2.4,2.1l-0.1,0.1c-1.3,0-2.2,0.1-2.9,0.3c-0.7,0.2-1.1,0.4-1.4,0.8c-0.2,0.3-0.3,0.5-0.3,0.9
		c0,0.3,0.1,0.6,0.4,0.8c0.2,0.2,0.4,0.3,0.7,0.3c0.3,0,0.5,0,0.8-0.2l0.1,0.1c-0.4,0.3-0.8,0.5-1.1,0.5s-0.7-0.1-1-0.4
		c-0.3-0.3-0.5-0.6-0.6-1c0-0.4,0.1-0.8,0.3-1.1c0.2-0.2,0.4-0.4,0.7-0.5c0.4-0.2,1-0.3,1.6-0.4c1-0.1,1.6-0.2,1.8-0.2l-1.1-0.9
		c-0.2-0.2-0.4-0.3-0.5-0.4c-0.1-0.1-0.2-0.1-0.3-0.1c-0.1,0-0.2,0-0.4,0.1L60.9,185.7z"/>
	<path d="M59.3,186.5c-0.4,0.5-0.9,0.8-1.3,1c-0.4,0.2-0.9,0.3-1.2,0.2c-0.3,0-0.5-0.1-0.7-0.3c-0.3-0.3-0.4-0.7-0.4-1.2
		c0.1-0.7,0.4-1.3,1-2c0.4-0.5,0.9-0.8,1.3-1c0.4-0.2,0.8-0.3,1.2-0.2s0.6,0.2,0.8,0.3c0.4,0.4,0.5,0.9,0.3,1.6
		C60.1,185.4,59.8,186,59.3,186.5z M58.8,185.9c0.5-0.5,0.9-1.1,1.1-1.5c0.2-0.4,0.1-0.7-0.1-0.9c-0.1-0.1-0.3-0.2-0.5-0.2
		c-0.2,0-0.4,0.1-0.7,0.2c-0.4,0.2-0.9,0.7-1.5,1.3c-0.4,0.5-0.7,0.9-0.9,1.3c-0.1,0.3-0.2,0.5-0.2,0.7c0,0.1,0.1,0.3,0.2,0.4
		c0.1,0.1,0.3,0.2,0.5,0.2c0.3,0,0.6-0.2,1-0.5C58.1,186.6,58.4,186.2,58.8,185.9z"/>
	<path d="M53.6,178.4l1-0.4l2.2,2.4l-0.1,0.1c-1.3-0.1-2.3-0.1-2.9,0c-0.7,0.1-1.2,0.3-1.5,0.6c-0.3,0.2-0.4,0.5-0.4,0.8
		c0,0.3,0.1,0.6,0.3,0.8c0.2,0.2,0.4,0.3,0.7,0.4c0.3,0.1,0.5,0,0.8-0.1l0.1,0.1c-0.4,0.3-0.8,0.4-1.2,0.4c-0.4,0-0.7-0.2-1-0.5
		c-0.3-0.3-0.4-0.7-0.4-1.1c0-0.4,0.2-0.7,0.4-1c0.2-0.2,0.5-0.3,0.7-0.4c0.5-0.1,1-0.2,1.7-0.2c1,0,1.6,0,1.8,0l-1-1.1
		c-0.2-0.2-0.3-0.4-0.4-0.4c-0.1-0.1-0.2-0.1-0.3-0.1c-0.1,0-0.2,0-0.4,0L53.6,178.4z"/>
	<path d="M50.5,180c-0.4,0.1-0.7,0.1-1,0.1c-0.3-0.1-0.6-0.2-0.8-0.5c-0.3-0.3-0.4-0.7-0.3-1c0-0.3,0.2-0.5,0.4-0.6
		c0.3-0.3,0.8-0.3,1.4-0.2c-0.1-0.3-0.1-0.7-0.1-0.9c0.1-0.3,0.2-0.5,0.5-0.8c0.4-0.3,0.8-0.5,1.2-0.4c0.6,0,1.1,0.3,1.6,0.9
		c0.2,0.3,0.4,0.5,0.4,0.7c0,0.2,0,0.3-0.1,0.3c-0.1,0.1-0.1,0.1-0.2,0.1s-0.2,0-0.2-0.1c0-0.1-0.1-0.1-0.1-0.2c0,0,0-0.2-0.1-0.3
		c0-0.2-0.1-0.3-0.1-0.4c0-0.1-0.1-0.2-0.2-0.3c-0.2-0.2-0.4-0.3-0.7-0.3c-0.3,0-0.6,0.1-0.8,0.2c-0.2,0.1-0.3,0.3-0.4,0.5
		c-0.1,0.2-0.1,0.3-0.1,0.4c0,0.2,0,0.3,0.1,0.6s0.2,0.4,0.3,0.6l0.1,0.1l-0.1,0.1c-0.2-0.1-0.4-0.3-0.6-0.3
		c-0.2-0.1-0.5-0.1-0.6-0.1c-0.2,0-0.4,0.1-0.5,0.3c-0.2,0.2-0.3,0.4-0.3,0.6c0,0.2,0.1,0.5,0.2,0.7c0.3,0.3,0.7,0.4,1.2,0.4
		L50.5,180z"/>
	<path d="M49.3,175.8c-0.5,0.4-1,0.6-1.5,0.7c-0.5,0.1-0.9,0.1-1.3,0c-0.3-0.1-0.5-0.2-0.7-0.4c-0.3-0.3-0.3-0.8-0.2-1.3
		c0.2-0.7,0.6-1.3,1.3-1.8c0.5-0.4,1-0.6,1.5-0.8s0.9-0.1,1.2,0c0.3,0.1,0.6,0.3,0.7,0.5c0.3,0.4,0.3,0.9,0.1,1.6
		C50.3,174.9,49.9,175.4,49.3,175.8z M48.9,175.1c0.6-0.5,1-0.9,1.3-1.3c0.2-0.4,0.2-0.7,0.1-0.9c-0.1-0.1-0.2-0.2-0.4-0.2
		c-0.2,0-0.4,0-0.7,0.1c-0.4,0.2-1,0.5-1.7,1c-0.5,0.4-0.9,0.7-1.1,1.1c-0.2,0.3-0.3,0.5-0.3,0.7c0,0.1,0,0.3,0.1,0.4
		c0.1,0.1,0.3,0.2,0.5,0.2c0.3,0,0.7-0.1,1.1-0.3C48.1,175.6,48.5,175.4,48.9,175.1z"/>
	<path d="M43.9,165.2l1.1-0.2l1.7,2.7l-0.1,0.1c-1.2-0.3-2.2-0.5-2.9-0.6c-0.7,0-1.2,0.1-1.6,0.3c-0.3,0.2-0.5,0.4-0.6,0.7
		s0,0.6,0.1,0.8c0.1,0.2,0.3,0.4,0.6,0.5c0.2,0.1,0.5,0.1,0.8,0l0.1,0.1c-0.5,0.2-0.9,0.3-1.2,0.2c-0.4-0.1-0.7-0.3-0.9-0.7
		c-0.2-0.4-0.3-0.8-0.2-1.2c0.1-0.4,0.3-0.7,0.6-0.9c0.2-0.1,0.5-0.2,0.8-0.3c0.5-0.1,1,0,1.7,0.1c1,0.2,1.6,0.3,1.8,0.4l-0.8-1.2
		c-0.2-0.2-0.3-0.4-0.3-0.5c-0.1-0.1-0.2-0.2-0.3-0.2c-0.1,0-0.2-0.1-0.4-0.1L43.9,165.2z"/>
	<path d="M41.1,162l0.5-0.3l0.4,0.6l1.3-0.7l0.3,0.6l-1.3,0.7l1.1,2l-0.4,0.3l-4.4-0.4l-0.2-0.4l3.1-1.7L41.1,162z M41.7,163.2
		l-2.4,1.3l3.3,0.3L41.7,163.2z"/>
	<path d="M40.2,161.8c-0.6,0.3-1.1,0.4-1.6,0.5c-0.5,0-0.9,0-1.2-0.2c-0.3-0.1-0.5-0.3-0.6-0.6c-0.2-0.4-0.2-0.8,0.1-1.3
		c0.3-0.6,0.8-1.1,1.6-1.5c0.6-0.3,1.1-0.4,1.6-0.5c0.5,0,0.9,0,1.2,0.2s0.5,0.4,0.6,0.6c0.2,0.5,0.2,1-0.2,1.6
		C41.3,161,40.8,161.4,40.2,161.8z M39.9,161c0.7-0.3,1.2-0.7,1.5-1.1c0.3-0.3,0.4-0.6,0.2-0.9c-0.1-0.1-0.2-0.2-0.4-0.3
		c-0.2-0.1-0.4-0.1-0.7,0c-0.5,0.1-1.1,0.3-1.8,0.7c-0.6,0.3-1,0.6-1.3,0.9c-0.2,0.2-0.4,0.4-0.4,0.6c0,0.1,0,0.3,0.1,0.4
		c0.1,0.2,0.2,0.3,0.4,0.3c0.3,0.1,0.7,0,1.1-0.1C39,161.4,39.5,161.2,39.9,161z"/>
	<path d="M37.6,152.3l1.1,0l1.2,3l-0.1,0.1c-1.2-0.5-2.1-0.9-2.7-1c-0.7-0.1-1.2-0.1-1.6,0c-0.3,0.1-0.5,0.3-0.7,0.6s-0.1,0.6,0,0.8
		c0.1,0.2,0.3,0.4,0.5,0.6s0.5,0.2,0.8,0.2l0.1,0.1c-0.5,0.1-0.9,0.1-1.3,0c-0.4-0.2-0.6-0.4-0.8-0.8c-0.2-0.4-0.2-0.8,0-1.2
		c0.1-0.4,0.4-0.6,0.8-0.8c0.3-0.1,0.5-0.2,0.8-0.1c0.5,0,1,0.1,1.6,0.4c0.9,0.3,1.5,0.6,1.7,0.7l-0.5-1.3c-0.1-0.3-0.2-0.5-0.3-0.6
		c-0.1-0.1-0.1-0.2-0.2-0.2c-0.1-0.1-0.2-0.1-0.4-0.1L37.6,152.3z"/>
	<path d="M32.1,150.1l0.8,0.1l0.6,1.5l0.8,0.1c-0.1-0.7-0.1-1.3,0.2-1.9c0.2-0.5,0.6-0.8,1-0.9c0.3-0.1,0.5-0.1,0.8-0.1
		c0.3,0,0.5,0.1,0.7,0.2c0.2,0.1,0.4,0.2,0.6,0.4c0.2,0.2,0.4,0.5,0.5,0.8c0.1,0.3,0.1,0.6,0.1,0.7c-0.1,0.2-0.1,0.3-0.3,0.3
		c-0.1,0-0.1,0-0.2,0c-0.1,0-0.1-0.1-0.2-0.2c0-0.1,0-0.1,0-0.2c0-0.1,0-0.2,0.1-0.3c0.1-0.2,0.1-0.5,0-0.6
		c-0.1-0.3-0.3-0.5-0.6-0.7s-0.6-0.2-0.9,0c-0.3,0.1-0.6,0.3-0.8,0.6s-0.3,0.6-0.3,1.1c0,0.3,0.1,0.7,0.2,1.2l-2.4-0.3L32.1,150.1z"
		/>
	<path d="M34.4,148.3c-0.6,0.2-1.1,0.3-1.6,0.2c-0.5,0-0.9-0.2-1.2-0.4c-0.2-0.2-0.4-0.4-0.5-0.6c-0.1-0.4,0-0.8,0.3-1.3
		c0.4-0.6,1-1,1.9-1.2c0.6-0.2,1.1-0.3,1.6-0.2c0.5,0,0.9,0.2,1.1,0.4c0.3,0.2,0.5,0.4,0.5,0.7c0.2,0.5,0,1-0.5,1.5
		C35.7,147.7,35.1,148.1,34.4,148.3z M34.3,147.5c0.7-0.2,1.3-0.5,1.7-0.8c0.3-0.3,0.5-0.5,0.4-0.8c0-0.1-0.1-0.3-0.3-0.4
		c-0.2-0.1-0.4-0.2-0.7-0.1c-0.5,0-1.1,0.2-1.9,0.4c-0.6,0.2-1.1,0.4-1.4,0.6c-0.3,0.2-0.4,0.4-0.5,0.6c-0.1,0.1-0.1,0.3,0,0.4
		c0.1,0.2,0.2,0.3,0.4,0.4c0.3,0.1,0.6,0.1,1.1,0.1C33.4,147.7,33.9,147.6,34.3,147.5z"/>
	<path d="M33.5,138.5l1.1,0.1l0.7,3.1l-0.1,0c-1.1-0.7-1.9-1.2-2.5-1.5c-0.6-0.3-1.2-0.3-1.6-0.2c-0.3,0.1-0.6,0.2-0.8,0.5
		c-0.2,0.3-0.2,0.5-0.2,0.8c0.1,0.3,0.2,0.5,0.4,0.7c0.2,0.2,0.5,0.3,0.8,0.3l0,0.1c-0.5,0-0.9,0-1.2-0.2s-0.5-0.5-0.6-0.9
		c-0.1-0.4,0-0.8,0.2-1.2c0.2-0.4,0.5-0.6,0.9-0.7c0.3-0.1,0.6-0.1,0.9,0c0.5,0.1,1,0.3,1.6,0.6c0.9,0.5,1.4,0.8,1.6,0.9l-0.3-1.4
		c-0.1-0.3-0.1-0.5-0.2-0.6c0-0.1-0.1-0.2-0.2-0.3c-0.1-0.1-0.2-0.1-0.3-0.2L33.5,138.5z"/>
	<path d="M28.3,135.4l0.1,0c0.1,0.3,0.2,0.6,0.4,0.8c0.1,0.2,0.3,0.4,0.6,0.6c0.3,0.2,0.5,0.3,0.8,0.4c0.3,0.1,0.6,0.2,1,0.2
		c-0.3-0.3-0.5-0.7-0.6-1.1c-0.1-0.4,0-0.7,0.3-1c0.2-0.3,0.6-0.5,1.1-0.6c0.4-0.1,0.9,0,1.3,0.2c0.5,0.2,0.8,0.6,0.9,1.2
		c0.1,0.4,0,0.7-0.2,1c-0.4,0.6-0.9,1-1.7,1.1c-0.5,0.1-1,0.1-1.4,0c-0.5-0.1-0.9-0.3-1.3-0.6s-0.7-0.6-0.9-0.9
		c-0.2-0.3-0.3-0.6-0.3-0.9L28.3,135.4z M31.5,137.3c0.4,0,0.7,0,0.9-0.1c0.3,0,0.5-0.1,0.8-0.3s0.5-0.3,0.6-0.5
		c0.1-0.2,0.1-0.3,0.1-0.5c0-0.2-0.2-0.4-0.4-0.6c-0.2-0.1-0.6-0.2-1-0.1c-0.5,0.1-0.8,0.2-1.1,0.5c-0.3,0.2-0.4,0.5-0.4,0.9
		c0,0.1,0.1,0.2,0.1,0.3C31.2,137,31.3,137.1,31.5,137.3z"/>
	<path d="M31,134.1c-0.6,0.1-1.2,0.1-1.6-0.1c-0.5-0.1-0.8-0.3-1.1-0.6c-0.2-0.2-0.3-0.5-0.4-0.7c-0.1-0.4,0.1-0.8,0.5-1.2
		c0.5-0.5,1.2-0.8,2-0.9c0.6-0.1,1.2-0.1,1.6,0.1s0.8,0.3,1.1,0.6c0.2,0.3,0.4,0.5,0.4,0.8c0.1,0.5-0.2,1-0.7,1.4
		C32.3,133.7,31.7,134,31,134.1z M31,133.3c0.7-0.1,1.3-0.3,1.8-0.5c0.4-0.2,0.5-0.5,0.5-0.8c0-0.1-0.1-0.3-0.3-0.4
		c-0.1-0.1-0.4-0.2-0.7-0.3c-0.5-0.1-1.1,0-2,0.1c-0.6,0.1-1.1,0.2-1.5,0.4c-0.3,0.1-0.5,0.3-0.6,0.5c-0.1,0.1-0.1,0.3-0.1,0.4
		c0,0.2,0.1,0.3,0.3,0.5c0.2,0.2,0.6,0.2,1.1,0.2C30.1,133.4,30.5,133.3,31,133.3z"/>
	<path d="M31.6,122.2l1.1,0.3l0.1,3.2l-0.1,0c-0.9-0.9-1.6-1.5-2.2-1.9s-1.1-0.5-1.5-0.5c-0.3,0-0.6,0.1-0.8,0.4
		c-0.2,0.2-0.3,0.5-0.3,0.8c0,0.3,0.1,0.5,0.3,0.7c0.2,0.2,0.4,0.4,0.7,0.4l0,0.1c-0.5,0-0.9-0.2-1.2-0.5s-0.4-0.6-0.4-1
		c0-0.4,0.1-0.8,0.4-1.1c0.3-0.3,0.6-0.5,1-0.5c0.3,0,0.6,0,0.8,0.2c0.4,0.2,0.9,0.5,1.4,0.9c0.8,0.6,1.2,1,1.4,1.2l-0.1-1.4
		c0-0.3,0-0.5-0.1-0.6c0-0.1-0.1-0.2-0.1-0.3c-0.1-0.1-0.2-0.2-0.3-0.2L31.6,122.2z"/>
	<path d="M27.1,121l0-2.9l0.2,0l5.4,1.8l0,0.5l-4.9-1.6l0,1.5c0,0.3,0,0.5,0.1,0.6c0.1,0.2,0.3,0.4,0.6,0.5l0,0.1L27.1,121z"/>
	<path d="M29.9,117.4c-0.6,0-1.2-0.1-1.6-0.4c-0.4-0.2-0.8-0.5-1-0.8c-0.2-0.2-0.2-0.5-0.2-0.8c0-0.4,0.3-0.8,0.7-1.1
		c0.5-0.4,1.3-0.6,2.2-0.5c0.6,0,1.2,0.1,1.6,0.4c0.4,0.2,0.7,0.5,0.9,0.7c0.2,0.3,0.3,0.6,0.3,0.8c0,0.5-0.4,0.9-1,1.3
		C31.3,117.3,30.7,117.4,29.9,117.4z M30.1,116.6c0.8,0,1.4,0,1.9-0.2c0.4-0.1,0.6-0.4,0.6-0.7c0-0.1-0.1-0.3-0.2-0.5
		c-0.1-0.2-0.3-0.3-0.6-0.4c-0.5-0.1-1.1-0.2-1.9-0.3c-0.6,0-1.1,0-1.6,0.1c-0.3,0.1-0.5,0.2-0.7,0.3c-0.1,0.1-0.1,0.2-0.2,0.4
		c0,0.2,0.1,0.3,0.2,0.5c0.2,0.2,0.6,0.4,1,0.4C29.1,116.5,29.6,116.6,30.1,116.6z"/>
	<path d="M32.4,107.8l1,0.5l-0.4,3.2l-0.1,0c-0.7-1-1.4-1.8-1.9-2.2c-0.5-0.4-1-0.7-1.4-0.8c-0.3,0-0.6,0-0.9,0.2
		c-0.2,0.2-0.4,0.4-0.4,0.7c0,0.3,0,0.5,0.1,0.7c0.1,0.2,0.3,0.4,0.6,0.6l0,0.1c-0.5-0.1-0.8-0.3-1.1-0.6c-0.2-0.3-0.3-0.7-0.3-1.1
		c0.1-0.4,0.2-0.8,0.6-1.1c0.3-0.3,0.7-0.4,1.1-0.3c0.3,0,0.5,0.1,0.8,0.3c0.4,0.2,0.8,0.6,1.3,1.1c0.6,0.7,1,1.2,1.2,1.4l0.2-1.4
		c0-0.3,0-0.5,0-0.6c0-0.1,0-0.2-0.1-0.3c-0.1-0.1-0.1-0.2-0.2-0.3L32.4,107.8z"/>
	<path d="M31,105.7c-0.4,0.4-0.7,0.6-1,0.7c-0.2,0.1-0.5,0.1-0.7,0.1c-0.3-0.1-0.6-0.2-0.8-0.6c-0.2-0.3-0.3-0.7-0.2-1.1
		c0.1-0.4,0.2-0.8,0.5-1c0.3-0.2,0.6-0.3,0.9-0.3c0.2,0,0.4,0.1,0.6,0.3c0.2,0.2,0.4,0.5,0.6,1c0.4-0.4,0.8-0.7,1-0.8
		c0.3-0.2,0.6-0.2,0.9-0.2c0.4,0.1,0.7,0.3,0.9,0.6c0.2,0.3,0.3,0.7,0.2,1.2c-0.1,0.5-0.3,0.9-0.7,1.1c-0.3,0.2-0.6,0.3-0.9,0.2
		c-0.2,0-0.5-0.2-0.7-0.4C31.4,106.4,31.2,106.1,31,105.7z M30.7,105c-0.2-0.4-0.4-0.6-0.6-0.7c-0.2-0.1-0.3-0.2-0.5-0.2
		c-0.3,0-0.5,0-0.7,0.1c-0.2,0.1-0.3,0.3-0.3,0.6c0,0.3,0,0.5,0.1,0.7c0.1,0.2,0.3,0.3,0.5,0.3c0.1,0,0.3,0,0.4,0
		c0.1,0,0.3-0.1,0.4-0.2L30.7,105z M31.2,105.5c0.1,0.3,0.3,0.4,0.5,0.6c0.2,0.1,0.4,0.2,0.7,0.3c0.3,0.1,0.6,0,0.9-0.1
		c0.2-0.2,0.4-0.4,0.4-0.7c0-0.3,0-0.5-0.1-0.7c-0.1-0.2-0.3-0.3-0.5-0.4c-0.2,0-0.4,0-0.5,0.1C32.1,104.7,31.7,105,31.2,105.5z"/>
	<path d="M31.5,102.8c-0.6-0.1-1.1-0.3-1.5-0.6c-0.4-0.3-0.7-0.6-0.8-0.9c-0.1-0.3-0.2-0.5-0.1-0.8c0.1-0.4,0.4-0.7,0.9-1
		c0.6-0.3,1.3-0.4,2.2-0.2c0.6,0.1,1.1,0.3,1.5,0.6s0.7,0.6,0.8,0.9c0.1,0.3,0.2,0.6,0.1,0.9c-0.1,0.5-0.5,0.9-1.2,1.1
		C32.9,102.9,32.2,103,31.5,102.8z M31.8,102.1c0.7,0.2,1.4,0.2,1.9,0.1c0.4-0.1,0.7-0.2,0.7-0.5c0-0.1,0-0.3-0.1-0.5
		c-0.1-0.2-0.3-0.3-0.6-0.5c-0.4-0.2-1.1-0.4-1.9-0.6c-0.6-0.1-1.1-0.2-1.6-0.1c-0.3,0-0.6,0.1-0.7,0.2c-0.1,0.1-0.2,0.2-0.2,0.4
		c0,0.2,0,0.4,0.1,0.5c0.2,0.2,0.5,0.4,0.9,0.6C30.9,101.8,31.3,102,31.8,102.1z"/>
	<path d="M36.1,91.8l0.9,0.7l-1,3.1l-0.1,0c-0.5-1.2-1-2-1.4-2.5s-0.8-0.9-1.3-1c-0.3-0.1-0.6-0.1-0.9,0c-0.3,0.1-0.5,0.3-0.5,0.6
		c-0.1,0.3-0.1,0.5,0,0.8c0.1,0.3,0.3,0.5,0.5,0.7l0,0.1c-0.5-0.2-0.8-0.5-0.9-0.8c-0.2-0.3-0.2-0.7-0.1-1.1
		c0.1-0.4,0.4-0.7,0.7-0.9c0.4-0.2,0.7-0.2,1.1-0.1c0.3,0.1,0.5,0.2,0.7,0.4c0.4,0.3,0.7,0.8,1,1.3c0.5,0.9,0.8,1.4,0.9,1.6l0.4-1.4
		c0.1-0.3,0.1-0.5,0.2-0.6c0-0.1,0-0.2,0-0.3c0-0.1-0.1-0.2-0.2-0.3L36.1,91.8z"/>
	<path d="M37.4,91.5l-0.1-0.1c0.1-0.3,0.2-0.7,0.1-1c0-0.3-0.2-0.7-0.5-1.1c-0.3-0.4-0.6-0.7-1-1c0.1,0.5,0.1,0.9,0,1.2
		c-0.1,0.4-0.4,0.6-0.8,0.8c-0.4,0.2-0.8,0.1-1.3,0c-0.4-0.2-0.8-0.4-1.1-0.8c-0.3-0.5-0.4-0.9-0.2-1.4c0.2-0.4,0.5-0.7,0.9-0.9
		c0.6-0.2,1.2-0.2,1.8,0c0.6,0.2,1.1,0.5,1.4,1c0.4,0.5,0.7,1,0.8,1.6c0.1,0.5,0.1,1-0.1,1.5L37.4,91.5z M35.7,88.2
		c-0.3-0.2-0.6-0.3-0.8-0.4c-0.2-0.1-0.5-0.1-0.8-0.2c-0.3,0-0.6,0-0.8,0.1c-0.2,0.1-0.3,0.2-0.4,0.4c-0.1,0.2-0.1,0.5,0.1,0.7
		s0.4,0.4,0.8,0.6c0.5,0.2,1,0.2,1.4,0.1c0.3-0.1,0.5-0.2,0.5-0.5c0-0.1,0.1-0.3,0.1-0.4C35.7,88.6,35.7,88.4,35.7,88.2z"/>
	<path d="M36.2,86.8c-0.6-0.2-1-0.5-1.4-0.9c-0.3-0.3-0.6-0.7-0.6-1.1c-0.1-0.3-0.1-0.6,0-0.8c0.2-0.4,0.5-0.6,1-0.8
		c0.6-0.2,1.4-0.1,2.2,0.3c0.6,0.2,1,0.5,1.4,0.9c0.3,0.3,0.5,0.7,0.6,1c0.1,0.3,0.1,0.6,0,0.9c-0.2,0.5-0.7,0.8-1.4,0.8
		C37.5,87.2,36.9,87.1,36.2,86.8z M36.6,86.1c0.7,0.3,1.3,0.4,1.8,0.5c0.4,0,0.7-0.1,0.8-0.4c0.1-0.1,0.1-0.3,0-0.5
		s-0.2-0.4-0.5-0.6c-0.4-0.3-1-0.6-1.7-0.9c-0.6-0.2-1.1-0.4-1.5-0.4c-0.3,0-0.6,0-0.8,0.1c-0.1,0.1-0.2,0.2-0.3,0.3
		c-0.1,0.2-0.1,0.3,0,0.5c0.1,0.3,0.4,0.5,0.8,0.8S36.2,85.9,36.6,86.1z"/>
	<path d="M37.2,80.1c-0.3-0.3-0.4-0.6-0.5-0.9c-0.1-0.3,0-0.6,0.1-0.9c0.2-0.4,0.5-0.6,0.8-0.7c0.3-0.1,0.5,0,0.7,0.1
		c0.4,0.2,0.6,0.6,0.8,1.2c0.3-0.2,0.6-0.4,0.8-0.4c0.3,0,0.6,0,0.9,0.2c0.4,0.2,0.7,0.5,0.9,1c0.2,0.6,0.2,1.2-0.2,1.8
		c-0.2,0.3-0.3,0.5-0.5,0.6c-0.1,0.1-0.3,0.1-0.4,0c-0.1,0-0.1-0.1-0.1-0.2c0-0.1,0-0.2,0-0.2c0-0.1,0.1-0.1,0.1-0.2
		c0,0,0.1-0.1,0.3-0.2c0.1-0.1,0.2-0.2,0.3-0.2c0.1-0.1,0.1-0.2,0.2-0.3c0.1-0.2,0.1-0.5,0-0.8c-0.1-0.3-0.3-0.5-0.5-0.6
		c-0.2-0.1-0.4-0.1-0.6-0.2c-0.2,0-0.3,0-0.4,0.1c-0.1,0.1-0.3,0.2-0.5,0.3c-0.2,0.1-0.3,0.3-0.4,0.5l-0.1,0.1L39,80.1
		c0.1-0.2,0.1-0.4,0.1-0.7c0-0.2-0.1-0.5-0.2-0.6c-0.1-0.2-0.3-0.3-0.5-0.4c-0.2-0.1-0.5-0.1-0.7-0.1c-0.2,0.1-0.4,0.2-0.5,0.5
		c-0.2,0.4-0.1,0.8,0.1,1.2L37.2,80.1z"/>
	<path d="M40.6,77.3c-0.5-0.3-1-0.7-1.3-1c-0.3-0.4-0.5-0.8-0.5-1.1c0-0.3,0-0.6,0.1-0.8c0.2-0.4,0.6-0.6,1.1-0.7
		c0.7-0.1,1.4,0.1,2.2,0.5c0.6,0.3,1,0.7,1.3,1c0.3,0.4,0.5,0.7,0.5,1.1c0,0.3,0,0.6-0.1,0.9c-0.3,0.5-0.7,0.7-1.4,0.7
		C41.9,77.8,41.3,77.6,40.6,77.3z M41.1,76.6c0.7,0.4,1.2,0.6,1.7,0.7c0.4,0.1,0.7,0,0.9-0.3c0.1-0.1,0.1-0.3,0.1-0.5
		c0-0.2-0.2-0.4-0.4-0.6c-0.3-0.3-0.9-0.7-1.6-1.1c-0.5-0.3-1-0.5-1.5-0.6c-0.3-0.1-0.6-0.1-0.8,0c-0.1,0.1-0.2,0.1-0.3,0.3
		c-0.1,0.2-0.1,0.3,0,0.5c0.1,0.3,0.3,0.6,0.7,0.9C40.3,76.2,40.7,76.4,41.1,76.6z"/>
	<path d="M42.7,73.6c-0.5-0.3-0.9-0.7-1.2-1.1c-0.3-0.4-0.4-0.8-0.5-1.2c0-0.3,0-0.6,0.2-0.8c0.2-0.4,0.6-0.6,1.1-0.6
		c0.7-0.1,1.4,0.1,2.2,0.6c0.5,0.3,0.9,0.7,1.2,1.1c0.3,0.4,0.4,0.8,0.4,1.1c0,0.3,0,0.6-0.2,0.9c-0.3,0.4-0.8,0.6-1.5,0.6
		C43.9,74.2,43.3,74,42.7,73.6z M43.2,73c0.6,0.4,1.2,0.6,1.7,0.7c0.4,0.1,0.7,0,0.9-0.3c0.1-0.1,0.1-0.3,0.1-0.5
		c0-0.2-0.1-0.4-0.4-0.6c-0.3-0.4-0.8-0.7-1.6-1.2c-0.5-0.3-1-0.6-1.4-0.7c-0.3-0.1-0.6-0.1-0.8,0c-0.1,0-0.2,0.1-0.3,0.3
		c-0.1,0.2-0.1,0.3-0.1,0.5c0.1,0.3,0.3,0.6,0.7,0.9C42.4,72.5,42.8,72.8,43.2,73z"/>
	<path d="M46,65.5c-0.2-0.3-0.3-0.7-0.3-1c0-0.3,0.1-0.6,0.3-0.9c0.3-0.3,0.6-0.5,1-0.5c0.3,0,0.5,0.1,0.7,0.2
		c0.3,0.2,0.5,0.7,0.5,1.3c0.3-0.2,0.6-0.3,0.9-0.3c0.3,0,0.6,0.1,0.8,0.3c0.4,0.3,0.6,0.7,0.7,1.1c0.1,0.6,0,1.2-0.5,1.8
		c-0.2,0.3-0.4,0.5-0.6,0.5c-0.2,0.1-0.3,0-0.4,0c-0.1,0-0.1-0.1-0.1-0.2c0-0.1,0-0.2,0.1-0.2c0-0.1,0.1-0.1,0.2-0.1
		c0,0,0.1-0.1,0.3-0.2c0.2-0.1,0.3-0.1,0.3-0.2c0.1-0.1,0.2-0.1,0.2-0.2c0.2-0.2,0.2-0.5,0.2-0.8c0-0.3-0.2-0.5-0.4-0.7
		c-0.2-0.1-0.4-0.2-0.6-0.3c-0.2,0-0.3,0-0.4,0c-0.2,0-0.3,0.1-0.5,0.2s-0.4,0.2-0.5,0.4l-0.1,0.1l-0.1-0.1c0.1-0.2,0.2-0.4,0.2-0.6
		c0-0.2,0-0.5-0.1-0.6c-0.1-0.2-0.2-0.3-0.4-0.5c-0.2-0.2-0.5-0.2-0.7-0.2c-0.2,0-0.4,0.2-0.6,0.4C46,64.5,46,65,46.2,65.5L46,65.5z
		"/>
	<path d="M48.6,61.4L49,60l0.1-0.1l3.5,3c0.2,0.2,0.4,0.3,0.5,0.3c0.1,0,0.2,0,0.2,0c0.1,0,0.2-0.1,0.4-0.3l0.1,0.1l-1.3,1.6
		l-0.1-0.1c0.2-0.2,0.3-0.3,0.3-0.4c0-0.1,0-0.2,0-0.2s-0.2-0.2-0.4-0.4l-2.3-1.9c-0.3-0.3-0.5-0.4-0.6-0.5c-0.1,0-0.1-0.1-0.2,0
		c-0.1,0-0.1,0-0.2,0.1c-0.1,0.1-0.1,0.2-0.2,0.4L48.6,61.4z"/>
	<path d="M52.6,60.2c-0.5-0.4-0.8-0.9-1-1.3c-0.2-0.4-0.3-0.9-0.2-1.2c0-0.3,0.1-0.5,0.3-0.7c0.3-0.3,0.7-0.4,1.2-0.4
		c0.7,0.1,1.3,0.4,2,1c0.5,0.4,0.8,0.9,1,1.3c0.2,0.4,0.3,0.8,0.2,1.2c0,0.3-0.2,0.6-0.3,0.8c-0.4,0.4-0.9,0.5-1.6,0.3
		C53.7,61,53.1,60.6,52.6,60.2z M53.2,59.6c0.6,0.5,1.1,0.9,1.5,1c0.4,0.2,0.7,0.1,0.9-0.1c0.1-0.1,0.2-0.3,0.2-0.5
		c0-0.2-0.1-0.4-0.2-0.7c-0.3-0.4-0.7-0.9-1.3-1.5c-0.5-0.4-0.9-0.7-1.3-0.9c-0.3-0.1-0.5-0.2-0.7-0.2c-0.1,0-0.3,0.1-0.4,0.2
		c-0.1,0.1-0.2,0.3-0.2,0.5c0,0.3,0.2,0.6,0.5,1C52.6,59,52.9,59.3,53.2,59.6z"/>
	<path d="M57.4,52.8c-0.1-0.4-0.2-0.7-0.1-1c0-0.3,0.2-0.6,0.5-0.8c0.3-0.3,0.7-0.4,1-0.4c0.3,0,0.5,0.1,0.7,0.3
		c0.3,0.3,0.4,0.8,0.3,1.4c0.3-0.1,0.7-0.2,0.9-0.1c0.3,0.1,0.5,0.2,0.8,0.5c0.3,0.4,0.5,0.8,0.5,1.2c0,0.6-0.3,1.1-0.8,1.6
		c-0.3,0.2-0.5,0.4-0.6,0.4c-0.2,0-0.3,0-0.3-0.1C60,55.8,60,55.8,60,55.7c0-0.1,0-0.2,0.1-0.2c0,0,0.1-0.1,0.2-0.1
		c0,0,0.2-0.1,0.3-0.1c0.2,0,0.3-0.1,0.4-0.1c0.1,0,0.2-0.1,0.3-0.2c0.2-0.2,0.3-0.4,0.3-0.7c0-0.3-0.1-0.5-0.3-0.8
		c-0.1-0.2-0.3-0.3-0.5-0.4C60.6,53,60.5,53,60.3,53c-0.2,0-0.3,0-0.5,0.1c-0.2,0.1-0.4,0.2-0.5,0.3l-0.1,0.1l-0.1-0.1
		c0.1-0.2,0.2-0.4,0.3-0.6c0.1-0.2,0.1-0.5,0-0.7c0-0.2-0.1-0.4-0.3-0.5c-0.2-0.2-0.4-0.3-0.6-0.3c-0.2,0-0.5,0.1-0.7,0.2
		c-0.3,0.3-0.4,0.7-0.3,1.2L57.4,52.8z"/>
	<path d="M65.3,50.4l0.4,1.1l-2.5,2l-0.1-0.1c0.2-1.3,0.3-2.2,0.2-2.9c0-0.7-0.2-1.2-0.5-1.5c-0.2-0.3-0.5-0.4-0.8-0.5
		c-0.3,0-0.6,0-0.8,0.2c-0.2,0.2-0.3,0.4-0.4,0.6c-0.1,0.3,0,0.5,0.1,0.8l-0.1,0.1c-0.3-0.4-0.4-0.8-0.3-1.2s0.2-0.7,0.6-1
		c0.3-0.3,0.7-0.4,1.1-0.4c0.4,0,0.7,0.2,1,0.5c0.2,0.2,0.3,0.5,0.4,0.8c0.1,0.5,0.2,1,0.1,1.7c-0.1,1-0.1,1.6-0.1,1.8l1.1-0.9
		c0.2-0.2,0.4-0.3,0.5-0.4c0.1-0.1,0.1-0.2,0.2-0.3c0-0.1,0-0.2,0-0.4L65.3,50.4z"/>
	<path d="M64.8,48.7c-0.4-0.5-0.6-1-0.7-1.5c-0.1-0.5-0.1-0.9,0-1.3c0.1-0.3,0.2-0.5,0.4-0.7c0.3-0.2,0.8-0.3,1.3-0.2
		c0.6,0.2,1.2,0.6,1.8,1.4c0.4,0.5,0.6,1,0.7,1.5c0.1,0.5,0.1,0.9,0,1.2c-0.1,0.3-0.3,0.6-0.5,0.7c-0.4,0.3-1,0.3-1.6,0
		C65.7,49.7,65.3,49.3,64.8,48.7z M65.5,48.3c0.4,0.6,0.9,1,1.3,1.3c0.4,0.2,0.7,0.3,0.9,0.1c0.1-0.1,0.2-0.2,0.2-0.4
		c0-0.2,0-0.4-0.1-0.7c-0.2-0.4-0.5-1-1-1.7c-0.4-0.5-0.7-0.9-1.1-1.1c-0.3-0.2-0.5-0.3-0.7-0.3c-0.1,0-0.3,0-0.4,0.1
		c-0.1,0.1-0.2,0.3-0.2,0.5c0,0.3,0.1,0.7,0.3,1.1C65,47.6,65.2,48,65.5,48.3z"/>
	<path d="M69.1,43.5c-0.1-0.4-0.1-0.7,0-1c0.1-0.3,0.3-0.5,0.6-0.7c0.4-0.2,0.7-0.3,1.1-0.2c0.3,0.1,0.5,0.2,0.6,0.4
		c0.2,0.3,0.2,0.8,0,1.4c0.4-0.1,0.7,0,0.9,0.1c0.3,0.1,0.5,0.3,0.7,0.6c0.3,0.4,0.4,0.8,0.3,1.3c-0.1,0.6-0.4,1.1-1.1,1.5
		c-0.3,0.2-0.5,0.3-0.7,0.3c-0.2,0-0.3-0.1-0.3-0.1c0-0.1-0.1-0.1,0-0.2c0-0.1,0.1-0.1,0.1-0.2c0.1,0,0.1-0.1,0.2-0.1
		c0,0,0.2,0,0.3,0c0.2,0,0.3,0,0.4-0.1c0.1,0,0.2-0.1,0.3-0.1c0.2-0.1,0.4-0.4,0.4-0.7c0.1-0.3,0-0.6-0.2-0.8
		c-0.1-0.2-0.3-0.3-0.5-0.4c-0.1-0.1-0.3-0.1-0.4-0.2c-0.2,0-0.3,0-0.6,0c-0.2,0-0.4,0.1-0.6,0.2l-0.1,0.1l-0.1-0.1
		c0.2-0.1,0.3-0.3,0.4-0.5c0.1-0.2,0.2-0.4,0.1-0.6c0-0.2-0.1-0.4-0.2-0.6c-0.1-0.2-0.3-0.4-0.6-0.4c-0.2,0-0.5,0-0.7,0.1
		c-0.4,0.2-0.5,0.6-0.5,1.1L69.1,43.5z"/>
	<path d="M72.7,41.2c0-0.4,0-0.7,0.1-1c0.1-0.3,0.3-0.5,0.6-0.7c0.4-0.2,0.7-0.3,1.1-0.1c0.3,0.1,0.5,0.2,0.6,0.5
		c0.2,0.3,0.2,0.8,0,1.4c0.4-0.1,0.7,0,0.9,0.1c0.3,0.1,0.5,0.3,0.7,0.6c0.2,0.4,0.3,0.8,0.2,1.3c-0.1,0.6-0.5,1.1-1.1,1.4
		C75.4,44.9,75.1,45,75,45c-0.2,0-0.3-0.1-0.3-0.2c0-0.1,0-0.1,0-0.2c0-0.1,0.1-0.1,0.2-0.2c0.1,0,0.1-0.1,0.2-0.1c0,0,0.2,0,0.3,0
		c0.2,0,0.3,0,0.4,0c0.1,0,0.2-0.1,0.3-0.1c0.2-0.1,0.4-0.3,0.5-0.6c0.1-0.3,0-0.6-0.1-0.8c-0.1-0.2-0.3-0.3-0.4-0.5
		c-0.1-0.1-0.3-0.2-0.4-0.2c-0.2,0-0.3,0-0.6,0c-0.2,0-0.4,0.1-0.6,0.2l-0.1,0.1l-0.1-0.1c0.2-0.1,0.3-0.3,0.4-0.5
		c0.1-0.2,0.2-0.4,0.2-0.6c0-0.2-0.1-0.4-0.2-0.6c-0.1-0.2-0.3-0.4-0.6-0.5c-0.2-0.1-0.5,0-0.7,0.1c-0.4,0.2-0.5,0.6-0.6,1.1
		L72.7,41.2z"/>
	<path d="M77.1,40.7c-0.3-0.6-0.4-1.1-0.5-1.6c0-0.5,0-0.9,0.2-1.2c0.1-0.3,0.3-0.5,0.5-0.6c0.4-0.2,0.8-0.2,1.3,0.1
		c0.6,0.3,1.1,0.8,1.5,1.6c0.3,0.6,0.5,1.1,0.5,1.6c0,0.5,0,0.9-0.2,1.2c-0.2,0.3-0.4,0.5-0.6,0.6c-0.5,0.2-1,0.2-1.6-0.2
		C77.8,41.9,77.4,41.4,77.1,40.7z M77.8,40.4c0.3,0.7,0.7,1.2,1.1,1.5c0.3,0.3,0.6,0.4,0.9,0.2c0.1-0.1,0.2-0.2,0.3-0.4
		c0.1-0.2,0.1-0.4,0-0.7c-0.1-0.5-0.3-1.1-0.7-1.8c-0.3-0.6-0.6-1-0.9-1.3c-0.2-0.2-0.4-0.4-0.6-0.4c-0.1,0-0.3,0-0.4,0.1
		c-0.2,0.1-0.3,0.2-0.3,0.4c-0.1,0.3,0,0.7,0.1,1.1C77.4,39.6,77.6,40,77.8,40.4z"/>
	<path d="M82.1,36.3c0-0.4,0.1-0.7,0.2-1s0.4-0.5,0.7-0.6c0.4-0.2,0.8-0.2,1.1,0c0.2,0.1,0.4,0.3,0.5,0.5c0.2,0.4,0.1,0.8-0.2,1.4
		c0.4,0,0.7,0.1,0.9,0.2c0.3,0.2,0.4,0.4,0.6,0.7c0.2,0.4,0.2,0.9,0.1,1.3c-0.2,0.6-0.6,1-1.3,1.3c-0.3,0.1-0.6,0.2-0.7,0.2
		c-0.2,0-0.3-0.1-0.3-0.2c0-0.1,0-0.1,0-0.2c0-0.1,0.1-0.1,0.2-0.2c0.1,0,0.1,0,0.2-0.1c0,0,0.2,0,0.3,0c0.2,0,0.3,0,0.4,0
		c0.1,0,0.2,0,0.3-0.1c0.3-0.1,0.4-0.3,0.5-0.6c0.1-0.3,0.1-0.5,0-0.8c-0.1-0.2-0.2-0.4-0.4-0.5c-0.1-0.1-0.2-0.2-0.3-0.2
		c-0.1-0.1-0.3-0.1-0.6-0.1c-0.2,0-0.4,0-0.6,0.1l-0.1,0.1l0-0.1c0.2-0.1,0.3-0.3,0.5-0.5c0.1-0.2,0.2-0.4,0.2-0.6
		c0-0.2,0-0.4-0.1-0.6c-0.1-0.3-0.3-0.4-0.5-0.5c-0.2-0.1-0.5-0.1-0.7,0c-0.4,0.2-0.6,0.5-0.7,1L82.1,36.3z"/>
	<path d="M90.1,35.7l0.2,0.5l-0.7,0.3l0.5,1.3L89.5,38L89,36.7l-2.2,0.8L86.6,37l1.1-4.3l0.4-0.2l1.3,3.3L90.1,35.7z M88.8,36.2
		l-1-2.5L87,36.8L88.8,36.2z"/>
	<path d="M90.5,34.8c-0.2-0.6-0.3-1.1-0.2-1.6c0-0.5,0.2-0.9,0.4-1.2c0.2-0.2,0.4-0.4,0.6-0.5c0.4-0.1,0.8,0,1.3,0.3
		c0.6,0.4,1,1,1.3,1.9c0.2,0.6,0.3,1.1,0.2,1.6c0,0.5-0.2,0.9-0.4,1.1s-0.4,0.5-0.7,0.5c-0.5,0.2-1,0-1.5-0.5
		C91,36.1,90.7,35.5,90.5,34.8z M91.2,34.7c0.2,0.7,0.5,1.3,0.8,1.7c0.3,0.3,0.5,0.5,0.8,0.4c0.1,0,0.3-0.2,0.4-0.3
		c0.1-0.2,0.2-0.4,0.1-0.7c0-0.5-0.2-1.1-0.4-1.9c-0.2-0.6-0.4-1.1-0.7-1.4c-0.2-0.3-0.4-0.4-0.6-0.5c-0.1,0-0.3-0.1-0.4,0
		C91.2,31.8,91,32,91,32.2c-0.1,0.3-0.1,0.6-0.1,1.1C91,33.8,91.1,34.2,91.2,34.7z"/>
	<path d="M98.2,30.7c0.1-0.4,0.2-0.7,0.4-1c0.2-0.2,0.5-0.4,0.8-0.5c0.4-0.1,0.8,0,1.1,0.2c0.2,0.2,0.4,0.4,0.4,0.6
		c0.1,0.4-0.1,0.8-0.5,1.4c0.4,0.1,0.6,0.2,0.9,0.4c0.2,0.2,0.4,0.5,0.4,0.8c0.1,0.5,0,0.9-0.2,1.3c-0.3,0.5-0.8,0.9-1.5,1
		c-0.4,0.1-0.6,0.1-0.8,0c-0.2-0.1-0.2-0.1-0.3-0.2c0-0.1,0-0.2,0-0.2c0-0.1,0.1-0.1,0.2-0.1c0.1,0,0.1,0,0.2,0c0,0,0.2,0,0.3,0.1
		c0.2,0,0.3,0.1,0.4,0.1c0.1,0,0.2,0,0.3,0c0.3-0.1,0.5-0.2,0.6-0.5s0.2-0.5,0.1-0.8c0-0.2-0.1-0.4-0.3-0.6
		c-0.1-0.1-0.2-0.2-0.3-0.3c-0.1-0.1-0.3-0.1-0.5-0.2c-0.2,0-0.4,0-0.6,0l-0.1,0l0-0.1c0.2-0.1,0.4-0.2,0.6-0.4
		c0.2-0.2,0.3-0.4,0.4-0.5c0.1-0.2,0.1-0.4,0-0.6c-0.1-0.3-0.2-0.5-0.4-0.6c-0.2-0.1-0.4-0.2-0.7-0.1c-0.4,0.1-0.7,0.4-0.9,0.9
		L98.2,30.7z"/>
	<path d="M105.3,28.2l-0.2,0.7l-1.6,0.3l-0.2,0.8c0.7,0,1.3,0.1,1.8,0.5c0.4,0.3,0.7,0.7,0.8,1.2c0,0.3,0,0.6,0,0.8
		c-0.1,0.3-0.2,0.5-0.3,0.7c-0.1,0.2-0.3,0.4-0.5,0.5c-0.3,0.2-0.6,0.3-0.9,0.4c-0.3,0.1-0.6,0-0.7,0s-0.3-0.2-0.3-0.3
		c0-0.1,0-0.1,0.1-0.2c0.1-0.1,0.1-0.1,0.2-0.1c0.1,0,0.1,0,0.2,0c0.1,0,0.2,0.1,0.3,0.1c0.2,0.1,0.4,0.1,0.6,0.1
		c0.3-0.1,0.6-0.2,0.8-0.5c0.2-0.3,0.3-0.6,0.2-0.9c-0.1-0.3-0.2-0.6-0.5-0.9s-0.6-0.4-1-0.5c-0.3-0.1-0.7-0.1-1.2,0l0.7-2.3
		L105.3,28.2z"/>
	<path d="M106.7,30.8c-0.1-0.6-0.1-1.2,0.1-1.6c0.1-0.5,0.3-0.8,0.6-1.1c0.2-0.2,0.5-0.3,0.7-0.4c0.4-0.1,0.8,0.1,1.2,0.5
		c0.5,0.5,0.8,1.2,0.9,2.1c0.1,0.6,0.1,1.2-0.1,1.6c-0.1,0.5-0.3,0.8-0.6,1c-0.3,0.2-0.5,0.4-0.8,0.4c-0.5,0.1-1-0.2-1.4-0.8
		C107,32.2,106.8,31.6,106.7,30.8z M107.5,30.8c0.1,0.7,0.3,1.3,0.5,1.8c0.2,0.4,0.5,0.5,0.8,0.5c0.1,0,0.3-0.1,0.4-0.3
		s0.2-0.4,0.3-0.7c0.1-0.5,0-1.1-0.1-2c-0.1-0.6-0.2-1.1-0.4-1.5c-0.1-0.3-0.3-0.5-0.5-0.6c-0.1-0.1-0.3-0.1-0.4-0.1
		c-0.2,0-0.3,0.1-0.5,0.3c-0.2,0.2-0.2,0.6-0.3,1.1C107.4,29.9,107.5,30.4,107.5,30.8z"/>
</g>
</svg>
