<?xml version="1.0" encoding="utf-8"?>
<!-- Generator: Adobe Illustrator 26.5.0, SVG Export Plug-In . SVG Version: 6.00 Build 0)  -->
<svg version="1.1" id="图层_1" xmlns="http://www.w3.org/2000/svg" xmlns:xlink="http://www.w3.org/1999/xlink" x="0px" y="0px"
	 viewBox="0 0 240 240" style="enable-background:new 0 0 240 240;" xml:space="preserve">
<style type="text/css">
	.st0{fill:#3A393D;}
	.st1{fill:none;stroke:#FFFFFF;stroke-miterlimit:10;}
	.st2{fill:none;stroke:#FFFFFF;stroke-width:0.5;stroke-miterlimit:10;}
	.st3{fill:none;}
	.st4{fill:#FFFFFF;}
	.st5{stroke:#000000;stroke-miterlimit:10;}
</style>
<g id="图层_2_00000119835537440343857750000016990640158700116370_">
	<circle class="st0" cx="120" cy="120" r="68"/>
	<line class="st1" x1="120" y1="52" x2="120" y2="68.6"/>
	<line class="st1" x1="80.1" y1="65" x2="89.8" y2="78.4"/>
	<line class="st1" x1="55.4" y1="99" x2="71.1" y2="104.1"/>
	<line class="st1" x1="55.4" y1="141" x2="71.1" y2="135.9"/>
	<line class="st1" x1="80.1" y1="175" x2="89.8" y2="161.6"/>
	<line class="st1" x1="120" y1="188" x2="120" y2="171.4"/>
	<line class="st1" x1="160" y1="175" x2="150.3" y2="161.6"/>
	<line class="st1" x1="184.7" y1="141" x2="168.9" y2="135.9"/>
	<line class="st1" x1="184.7" y1="99" x2="168.9" y2="104.1"/>
	<line class="st1" x1="160" y1="65" x2="150.2" y2="78.4"/>
	<line class="st2" x1="156.4" y1="62.6" x2="151.6" y2="70.3"/>
	<line class="st2" x1="152.8" y1="60.4" x2="148.4" y2="68.4"/>
	<line class="st2" x1="148.9" y1="58.5" x2="145.1" y2="66.7"/>
	<line class="st2" x1="145" y1="56.8" x2="141.7" y2="65.2"/>
	<line class="st2" x1="141" y1="55.4" x2="138.2" y2="64"/>
	<line class="st2" x1="136.9" y1="54.2" x2="134.7" y2="62.9"/>
	<line class="st2" x1="132.7" y1="53.2" x2="131" y2="62.1"/>
	<line class="st2" x1="128.5" y1="52.6" x2="127.4" y2="61.6"/>
	<line class="st2" x1="124.3" y1="52.2" x2="123.7" y2="61.2"/>
	<line class="st2" x1="115.7" y1="52.2" x2="116.3" y2="61.2"/>
	<line class="st2" x1="111.5" y1="52.6" x2="112.6" y2="61.6"/>
	<line class="st2" x1="107.3" y1="53.2" x2="109" y2="62.1"/>
	<line class="st2" x1="103.1" y1="54.2" x2="105.3" y2="62.9"/>
	<line class="st2" x1="99" y1="55.4" x2="101.8" y2="64"/>
	<line class="st2" x1="95" y1="56.8" x2="98.3" y2="65.2"/>
	<line class="st2" x1="91.1" y1="58.5" x2="94.9" y2="66.7"/>
	<line class="st2" x1="87.3" y1="60.4" x2="91.6" y2="68.4"/>
	<line class="st2" x1="83.6" y1="62.6" x2="88.4" y2="70.3"/>
	<line class="st2" x1="76.7" y1="67.6" x2="82.5" y2="74.6"/>
	<line class="st2" x1="73.5" y1="70.5" x2="79.7" y2="77.1"/>
	<line class="st2" x1="70.5" y1="73.5" x2="77.1" y2="79.7"/>
	<line class="st2" x1="67.6" y1="76.7" x2="74.6" y2="82.5"/>
	<line class="st2" x1="65" y1="80" x2="72.3" y2="85.4"/>
	<line class="st2" x1="62.6" y1="83.6" x2="70.3" y2="88.4"/>
	<line class="st2" x1="60.4" y1="87.3" x2="68.4" y2="91.6"/>
	<line class="st2" x1="58.5" y1="91.1" x2="66.7" y2="94.9"/>
	<line class="st2" x1="56.8" y1="95" x2="65.2" y2="98.3"/>
	<line class="st2" x1="54.2" y1="103.1" x2="62.9" y2="105.4"/>
	<line class="st2" x1="53.2" y1="107.3" x2="62.1" y2="109"/>
	<line class="st2" x1="52.6" y1="111.5" x2="61.6" y2="112.6"/>
	<line class="st2" x1="52.2" y1="115.7" x2="61.2" y2="116.3"/>
	<line class="st2" x1="52" y1="120" x2="61.1" y2="120"/>
	<line class="st2" x1="52.2" y1="124.3" x2="61.2" y2="123.7"/>
	<line class="st2" x1="52.6" y1="128.5" x2="61.6" y2="127.4"/>
	<line class="st2" x1="53.2" y1="132.7" x2="62.1" y2="131"/>
	<line class="st2" x1="54.2" y1="136.9" x2="63" y2="134.7"/>
	<line class="st2" x1="56.8" y1="145" x2="65.2" y2="141.7"/>
	<line class="st2" x1="58.5" y1="148.9" x2="66.7" y2="145.1"/>
	<line class="st2" x1="60.4" y1="152.7" x2="68.4" y2="148.4"/>
	<line class="st2" x1="62.6" y1="156.4" x2="70.3" y2="151.6"/>
	<line class="st2" x1="65" y1="160" x2="72.4" y2="154.6"/>
	<line class="st2" x1="67.6" y1="163.3" x2="74.6" y2="157.6"/>
	<line class="st2" x1="70.5" y1="166.5" x2="77.1" y2="160.3"/>
	<line class="st2" x1="73.5" y1="169.5" x2="79.7" y2="163"/>
	<line class="st2" x1="76.7" y1="172.4" x2="82.5" y2="165.4"/>
	<line class="st2" x1="83.6" y1="177.4" x2="88.5" y2="169.7"/>
	<line class="st2" x1="87.3" y1="179.6" x2="91.6" y2="171.6"/>
	<line class="st2" x1="91.1" y1="181.5" x2="94.9" y2="173.3"/>
	<line class="st2" x1="95" y1="183.2" x2="98.3" y2="174.8"/>
	<line class="st2" x1="99" y1="184.6" x2="101.8" y2="176"/>
	<line class="st2" x1="103.1" y1="185.8" x2="105.4" y2="177.1"/>
	<line class="st2" x1="107.3" y1="186.8" x2="109" y2="177.9"/>
	<line class="st2" x1="111.5" y1="187.4" x2="112.6" y2="178.4"/>
	<line class="st2" x1="115.7" y1="187.8" x2="116.3" y2="178.8"/>
	<line class="st2" x1="124.3" y1="187.8" x2="123.7" y2="178.8"/>
	<line class="st2" x1="128.5" y1="187.4" x2="127.4" y2="178.4"/>
	<line class="st2" x1="132.7" y1="186.8" x2="131.1" y2="177.9"/>
	<line class="st2" x1="136.9" y1="185.8" x2="134.7" y2="177.1"/>
	<line class="st2" x1="141" y1="184.6" x2="138.2" y2="176"/>
	<line class="st2" x1="145" y1="183.2" x2="141.7" y2="174.8"/>
	<line class="st2" x1="148.9" y1="181.5" x2="145.1" y2="173.3"/>
	<line class="st2" x1="152.8" y1="179.6" x2="148.4" y2="171.6"/>
	<line class="st2" x1="156.4" y1="177.4" x2="151.6" y2="169.7"/>
	<line class="st2" x1="163.3" y1="172.4" x2="157.6" y2="165.4"/>
	<line class="st2" x1="166.5" y1="169.5" x2="160.3" y2="162.9"/>
	<line class="st2" x1="169.6" y1="166.5" x2="163" y2="160.3"/>
	<line class="st2" x1="172.4" y1="163.3" x2="165.4" y2="157.5"/>
	<line class="st2" x1="175" y1="160" x2="167.7" y2="154.6"/>
	<line class="st2" x1="177.4" y1="156.4" x2="169.8" y2="151.6"/>
	<line class="st2" x1="179.6" y1="152.7" x2="171.6" y2="148.4"/>
	<line class="st2" x1="181.5" y1="148.9" x2="173.3" y2="145.1"/>
	<line class="st2" x1="183.2" y1="145" x2="174.8" y2="141.7"/>
	<line class="st2" x1="185.8" y1="136.9" x2="177.1" y2="134.6"/>
	<line class="st2" x1="186.8" y1="132.7" x2="177.9" y2="131"/>
	<line class="st2" x1="187.4" y1="128.5" x2="178.5" y2="127.4"/>
	<line class="st2" x1="187.8" y1="124.3" x2="178.8" y2="123.7"/>
	<line class="st2" x1="188" y1="120" x2="178.9" y2="120"/>
	<line class="st2" x1="187.8" y1="115.7" x2="178.8" y2="116.3"/>
	<line class="st2" x1="187.4" y1="111.5" x2="178.5" y2="112.6"/>
	<line class="st2" x1="186.8" y1="107.3" x2="177.9" y2="109"/>
	<line class="st2" x1="185.8" y1="103.1" x2="177.1" y2="105.3"/>
	<line class="st2" x1="183.2" y1="95" x2="174.8" y2="98.3"/>
	<line class="st2" x1="181.5" y1="91.1" x2="173.3" y2="94.9"/>
	<line class="st2" x1="179.6" y1="87.3" x2="171.6" y2="91.6"/>
	<line class="st2" x1="177.4" y1="83.6" x2="169.7" y2="88.4"/>
	<line class="st2" x1="175" y1="80" x2="167.7" y2="85.4"/>
	<line class="st2" x1="172.4" y1="76.7" x2="165.4" y2="82.4"/>
	<line class="st2" x1="169.6" y1="73.5" x2="162.9" y2="79.7"/>
	<line class="st2" x1="166.5" y1="70.5" x2="160.3" y2="77"/>
	<line class="st2" x1="163.3" y1="67.6" x2="157.6" y2="74.6"/>
	<path id="SVGID_x5F_00000101098046959214959160000004180712758097551008_x5F_" class="st3" d="M159,120c0,21.5-17.5,39-39,39
		s-39-17.5-39-39s17.5-39,39-39S159,98.5,159,120z"/>
	<g>
		<path class="st4" d="M117.6,77.1c0-1,0.2-1.9,0.5-2.6s0.7-1.2,1.2-1.6c0.4-0.3,0.8-0.4,1.2-0.4c0.7,0,1.3,0.4,1.8,1
			c0.7,0.9,1,2,1,3.5c0,1-0.2,1.9-0.5,2.6s-0.7,1.2-1.1,1.5c-0.5,0.3-0.9,0.5-1.3,0.5c-0.8,0-1.5-0.5-2.1-1.5
			C117.8,79.3,117.5,78.3,117.6,77.1z M118.8,77.3c0,1.2,0.1,2.2,0.4,3c0.2,0.6,0.6,1,1.1,1c0.2,0,0.5-0.1,0.7-0.3
			c0.3-0.2,0.4-0.6,0.6-1c0.2-0.7,0.3-1.8,0.3-3.1c0-1-0.1-1.8-0.3-2.5c-0.2-0.5-0.3-0.8-0.6-1.1c-0.2-0.1-0.4-0.2-0.6-0.2
			c-0.3,0-0.6,0.1-0.8,0.4c-0.3,0.4-0.5,0.9-0.6,1.7C118.9,75.8,118.8,76.6,118.8,77.3z"/>
		<path class="st4" d="M147,82.2l2.3,0.5l0.2,0.1l-4.5,5.8c-0.3,0.4-0.5,0.6-0.5,0.8c0,0.1,0,0.2,0,0.4c0.1,0.1,0.2,0.3,0.6,0.6
			l-0.1,0.2l-2.6-2l0.1-0.2c0.3,0.2,0.6,0.4,0.7,0.4c0.1,0,0.3,0,0.4,0c0.1-0.1,0.3-0.3,0.6-0.7l2.9-3.7c0.4-0.5,0.6-0.8,0.7-1
			c0.1-0.1,0.1-0.2,0.1-0.3c0-0.1-0.1-0.2-0.2-0.3c-0.1-0.1-0.3-0.2-0.6-0.2L147,82.2z"/>
		<path class="st4" d="M158.8,109H157l-1.8-4.9l0.2-0.1c1.8,1,3.2,1.6,4.3,1.9s1.9,0.3,2.6,0.1c0.5-0.2,0.9-0.5,1.1-0.9
			c0.2-0.4,0.3-0.9,0.1-1.3c-0.1-0.4-0.4-0.7-0.7-1c-0.4-0.2-0.8-0.3-1.3-0.3l-0.1-0.2c0.8-0.2,1.5-0.1,2,0.2
			c0.6,0.3,0.9,0.7,1.2,1.4c0.2,0.7,0.2,1.3,0,1.9c-0.3,0.6-0.7,1-1.3,1.2c-0.4,0.1-0.9,0.2-1.4,0.2c-0.8-0.1-1.6-0.3-2.6-0.7
			c-1.5-0.6-2.4-1-2.7-1.2l0.8,2.1c0.2,0.4,0.3,0.7,0.4,0.9c0.1,0.2,0.2,0.3,0.4,0.4s0.3,0.2,0.6,0.2V109z"/>
		<path class="st4" d="M164.3,131.1c0.5,0.4,0.8,0.8,1,1.3s0.2,1,0,1.5c-0.2,0.7-0.6,1.1-1.1,1.3c-0.4,0.2-0.8,0.2-1.2,0.1
			c-0.6-0.2-1.1-0.8-1.5-1.7c-0.4,0.5-0.8,0.7-1.2,0.9s-0.9,0.1-1.4,0c-0.7-0.2-1.3-0.7-1.7-1.3c-0.5-0.8-0.6-1.8-0.2-2.9
			c0.2-0.6,0.4-0.9,0.6-1.1c0.2-0.2,0.4-0.2,0.5-0.2s0.2,0.1,0.3,0.2c0.1,0.1,0.1,0.3,0,0.4c0,0.1-0.1,0.2-0.1,0.3s-0.2,0.2-0.4,0.4
			s-0.3,0.4-0.4,0.4c-0.1,0.1-0.2,0.3-0.2,0.5c-0.1,0.4-0.1,0.8,0.1,1.2c0.2,0.4,0.6,0.7,1,0.8c0.3,0.1,0.7,0.1,1,0.1
			s0.5-0.1,0.6-0.2c0.2-0.1,0.4-0.3,0.7-0.6c0.2-0.3,0.4-0.6,0.5-0.9l0.1-0.2l0.2,0.1c-0.1,0.3,0,0.7,0,1.1c0.1,0.4,0.2,0.7,0.5,0.9
			c0.2,0.2,0.5,0.4,0.8,0.5c0.4,0.1,0.8,0.1,1.1-0.1c0.3-0.2,0.6-0.5,0.7-0.9c0.2-0.6,0-1.3-0.5-1.9L164.3,131.1z"/>
		<path class="st4" d="M141.9,155.6l-0.5-0.7l1-0.7l-1.3-1.9l0.9-0.6l1.3,1.9l3-2.1l0.5,0.7l0.1,7.1l-0.6,0.4l-3.3-4.6L141.9,155.6z
			 M143.7,154.3l2.5,3.5v-5.3L143.7,154.3z"/>
		<path class="st4" d="M116.2,167.2l0.5-1.1l2.6,0.1l0.6-1.2c-1.1-0.2-2-0.7-2.7-1.3c-0.6-0.6-0.8-1.3-0.8-2.1
			c0-0.5,0.1-0.9,0.3-1.3c0.2-0.4,0.4-0.7,0.7-1c0.3-0.3,0.6-0.5,1-0.6c0.5-0.2,1-0.3,1.5-0.3s0.9,0.1,1.1,0.3s0.3,0.4,0.3,0.6
			c0,0.1-0.1,0.2-0.2,0.3s-0.2,0.1-0.4,0.1c-0.1,0-0.2,0-0.3-0.1c-0.1,0-0.2-0.1-0.4-0.3c-0.3-0.2-0.6-0.4-1-0.4
			c-0.5,0-0.9,0.2-1.3,0.5c-0.4,0.4-0.6,0.8-0.6,1.4c0,0.5,0.1,1,0.5,1.5c0.3,0.5,0.8,0.8,1.4,1.1c0.5,0.2,1.1,0.3,1.9,0.4l-1.8,3.3
			L116.2,167.2z"/>
		<path class="st4" d="M91.2,157.8l0.1-0.2c0.5,0.3,0.9,0.4,1.3,0.5s0.8,0,1.3,0c0.5-0.1,0.9-0.2,1.4-0.5c0.4-0.2,0.9-0.5,1.3-0.9
			c-0.8,0-1.4-0.2-1.9-0.5s-0.8-0.8-0.9-1.5c-0.1-0.6,0.1-1.3,0.5-1.9c0.4-0.6,1-1,1.7-1.3c0.9-0.3,1.6-0.2,2.4,0.3
			c0.5,0.3,0.8,0.8,0.9,1.3c0.2,1.1,0,2.2-0.7,3.2c-0.4,0.6-1,1.2-1.6,1.6c-0.7,0.4-1.4,0.7-2.2,0.8c-0.8,0.1-1.5,0.1-2,0
			s-1-0.3-1.4-0.6L91.2,157.8z M97,156.3c0.4-0.4,0.7-0.8,0.9-1.1c0.2-0.3,0.4-0.8,0.6-1.2c0.1-0.5,0.2-0.9,0.1-1.3
			c-0.1-0.3-0.2-0.5-0.5-0.7s-0.7-0.3-1.1-0.1s-0.8,0.5-1.2,1c-0.4,0.6-0.7,1.2-0.7,1.8c-0.1,0.6,0.1,1.1,0.6,1.4
			c0.1,0.1,0.3,0.2,0.5,0.2C96.3,156.2,96.6,156.3,97,156.3z"/>
		<path class="st4" d="M75.8,137l-1.5-4.4l0.2-0.1h9.2l0.2,0.7h-8.3l0.8,2.3c0.2,0.5,0.3,0.8,0.5,0.9c0.3,0.3,0.7,0.5,1.1,0.5v0.2
			L75.8,137z"/>
		<path class="st4" d="M79,107.1c-0.8,0.5-1.3,0.8-1.7,0.8c-0.4,0.1-0.8,0.1-1.1-0.1c-0.5-0.2-0.9-0.5-1.2-1.1
			c-0.3-0.5-0.3-1.2,0-1.9c0.2-0.7,0.6-1.1,1.1-1.4s1-0.4,1.4-0.2c0.3,0.1,0.6,0.3,0.8,0.6c0.2,0.3,0.5,0.9,0.7,1.8
			c0.8-0.5,1.4-0.9,1.8-1c0.5-0.2,1-0.2,1.5,0c0.6,0.2,1,0.6,1.3,1.2s0.3,1.2,0,2s-0.7,1.3-1.4,1.6c-0.5,0.2-1,0.2-1.5,0.1
			c-0.4-0.1-0.7-0.4-1-0.7C79.5,108.4,79.3,107.8,79,107.1z M78.7,105.9c-0.3-0.6-0.5-1.1-0.7-1.3c-0.2-0.2-0.5-0.4-0.8-0.5
			c-0.4-0.1-0.8-0.1-1.1,0c-0.3,0.2-0.6,0.4-0.7,0.9c-0.1,0.4-0.1,0.8,0,1.1c0.2,0.3,0.4,0.6,0.7,0.7c0.2,0.1,0.4,0.1,0.7,0.1
			c0.2,0,0.5-0.1,0.8-0.3L78.7,105.9z M79.4,106.9c0.2,0.4,0.4,0.8,0.7,1.1c0.3,0.3,0.6,0.5,1,0.6c0.5,0.2,1,0.2,1.4,0
			s0.7-0.5,0.8-0.9c0.1-0.4,0.1-0.8,0-1.2c-0.2-0.3-0.4-0.6-0.8-0.7c-0.3-0.1-0.6-0.1-0.9,0C81.1,105.8,80.4,106.2,79.4,106.9z"/>
		<path class="st4" d="M96.2,89.8l-0.1-0.2c0.5-0.3,0.8-0.7,1.1-1.2c0.3-0.5,0.4-1.1,0.4-1.9s-0.1-1.5-0.4-2.2
			c-0.3,0.7-0.7,1.3-1.1,1.6c-0.5,0.3-1.1,0.4-1.7,0.3s-1.2-0.5-1.6-1.2c-0.4-0.6-0.6-1.3-0.6-2.1c0-0.9,0.4-1.6,1.1-2.1
			c0.6-0.4,1.3-0.5,2-0.3c0.9,0.3,1.7,0.8,2.3,1.7c0.5,0.8,0.9,1.7,0.9,2.6c0.1,1-0.1,1.9-0.5,2.9c-0.3,0.8-0.8,1.4-1.5,1.8
			L96.2,89.8z M97,83.8c-0.3-0.5-0.5-0.9-0.7-1.2c-0.2-0.3-0.5-0.7-0.9-1s-0.8-0.5-1.1-0.6c-0.4-0.1-0.7,0-1,0.2s-0.5,0.5-0.5,1
			c0,0.4,0.1,1,0.5,1.5c0.5,0.7,1.1,1.2,1.7,1.4c0.4,0.1,0.8,0.1,1.2-0.1c0.2-0.1,0.3-0.3,0.5-0.5C96.8,84.3,96.9,84.1,97,83.8z"/>
	</g>
</g>
<circle class="st5" cx="120" cy="120" r="22.4"/>
</svg>
