<?xml version="1.0" encoding="utf-8"?>
<!-- Generator: Adobe Illustrator 26.5.0, SVG Export Plug-In . SVG Version: 6.00 Build 0)  -->
<svg version="1.1" id="图层_1" xmlns="http://www.w3.org/2000/svg" xmlns:xlink="http://www.w3.org/1999/xlink" x="0px" y="0px"
	 viewBox="0 0 240 240" style="enable-background:new 0 0 240 240;" xml:space="preserve">
<style type="text/css">
	.st0{fill:#11FD01;}
</style>
<path class="st0" d="M96.2,10c9.7,0.6,18.2,4.2,23.6,12.7c2.4,3.7,3.7,7.2,2.4,11.5c-0.6,1.8-1.8,4.2-3,5.5
	c-7.9,7.2-10.9,16.4-11.4,27.3c-0.6,6.6,0.6,13.3,3,19.9c1.3,3.7,2.4,6.6,3.7,10.3c6.1-1.8,12.1-0.6,18.2,2.4
	c0.6-2.4,1.3-4.2,2.4-6.1c4.8-12.1,10.9-23,20.6-32.1c9.7-9,21.2-14.5,34.4-13.3c9,0.6,16.4,4.2,23,10.3
	c10.9,10.3,17.5,23,16.9,38.7c-1.3,10.9-6.1,19.4-14.5,24.9c-2.7,1.6-5.8,2.5-9,2.4c-3,0-5.5-1.3-7.9-3.7
	c-6.6-7.2-15.1-10.3-24.3-11.5c-8.5-1.3-16.9,0.6-24.8,3c-2.4,1.3-5.5,1.8-7.9,2.4c1.8,6.1,0.6,12.1-2.4,17.5
	c3.7,1.3,6.6,2.4,9.7,3.7c12.7,5.5,23.6,12.1,32.6,23c11.4,14,13.3,31.5,5.5,46c-7.2,12.7-18.2,19.9-31.5,23.6
	c-9,2.4-17.5,1.8-26-2.4c-6.6-3.7-11.4-8.5-12.7-16.4c-0.6-4.2,0.6-7.2,3-10.3c10.3-9.7,13.3-21.8,11.4-34.5
	c-1.3-7.9-3.7-15.1-5.5-23c-6.6,1.8-12.7,0.6-18.2-2.4c-1.3,3.7-2.4,7.2-4.2,10.9c-4.7,12-12.4,22.7-22.4,30.8
	c-7.2,6.1-15.1,9.6-24.8,10.3c-11.4,1.3-21.7-3-29.6-10.9c-10.9-10.3-16.9-23-16.4-38.1c0.6-10.9,5.5-19.9,15.8-24.9
	c5.3-2.6,11.8-1.4,15.7,3c6.1,7.2,14.5,9.6,23.6,10.3c8.5,0.6,16.4-0.6,23.6-3c3-1.3,5.5-1.8,8.5-3c-1.8-6.1-0.6-12.1,2.4-17.5
	c-3.7-1.3-6.6-2.4-9.7-3.7C78.9,99.7,69,93.3,60.7,85.1c-9-9.6-14.5-21.2-13.3-35.1c0.6-8.5,4.2-15.7,9.7-22.5
	C67.8,16.1,80.5,9.5,96.2,10z M119.8,114.3c-3,0-5.8,3-5.8,5.8c0,3,3,5.8,5.8,5.8c3,0,5.8-3,5.8-5.8
	C126.2,117.2,123.2,114.3,119.8,114.3z"/>
</svg>
