<?xml version="1.0" encoding="utf-8"?>
<!-- Generator: Adobe Illustrator 26.5.0, SVG Export Plug-In . SVG Version: 6.00 Build 0)  -->
<svg version="1.1" id="图层_2" xmlns="http://www.w3.org/2000/svg" xmlns:xlink="http://www.w3.org/1999/xlink" x="0px" y="0px"
	 viewBox="0 0 240 240" style="enable-background:new 0 0 240 240;" xml:space="preserve">
<style type="text/css">
	.st0{fill:#11FD01;}
</style>
<g>
	<g>
		<path class="st0" d="M136.9,55.1C132.4,19.3,120,20.4,120,20.4l0,26c4.7,0,8.6,3.8,8.6,8.6c0,4.7-3.8,8.6-8.6,8.6l0,156
			c0,0,1.1-1.5,5.9-24S141.4,91,136.9,55.1z"/>
	</g>
</g>
<g>
	<g>
		<path class="st0" d="M120,63.6c-4.7,0-8.6-3.8-8.6-8.6c0-4.7,3.8-8.6,8.6-8.6l0-26c0,0-12.4-1.2-16.9,34.7
			c-4.5,35.9,6.2,117.9,11,140.5c4.8,22.5,5.9,24,5.9,24L120,63.6z"/>
	</g>
</g>
</svg>
